            <svg className='absolute -top-12 -z-10' viewBox="0 0 1440 1000" fill="none" xmlns="http://www.w3.org/2000/svg">
                <g filter="url(#filter0_f_21_100)">
                    <path d="M1498 736.54C1498 1072.58 1191 1345 812.298 1345C433.594 1345 -58 1182.32 -58 846.277C-58 510.234 460.518 41.5398 724.799 287.778C989.08 534.017 1498 400.496 1498 736.54Z" fill="#00FFC2" />
                </g>
                <g filter="url(#filter1_f_21_100)">
                    <path d="M1498 929.54C1498 1265.58 1191 1538 812.298 1538C433.594 1538 -58 1375.32 -58 1039.28C-58 703.234 460.518 234.54 724.799 480.778C989.08 727.017 1498 593.496 1498 929.54Z" fill="#F5F5F5" />
                </g>
                <g filter="url(#filter2_f_21_100)">
                    <path d="M1498 1260.54C1498 1596.58 1191 1869 812.298 1869C433.594 1869 -58 1706.32 -58 1370.28C-58 1034.23 460.518 565.54 724.799 811.778C989.08 1058.02 1498 924.496 1498 1260.54Z" fill="#07050F" />
                </g>
                <defs>
                    <filter id="filter0_f_21_100" x="-422" y="-145" width="2284" height="1854" filterUnits="userSpaceOnUse" color-interpolation-filters="sRGB">
                        <feFlood flood-opacity="0" result="BackgroundImageFix" />
                        <feBlend mode="normal" in="SourceGraphic" in2="BackgroundImageFix" result="shape" />
                        <feGaussianBlur stdDeviation="182" result="effect1_foregroundBlur_21_100" />
                    </filter>
                    <filter id="filter1_f_21_100" x="-422" y="48" width="2284" height="1854" filterUnits="userSpaceOnUse" color-interpolation-filters="sRGB">
                        <feFlood flood-opacity="0" result="BackgroundImageFix" />
                        <feBlend mode="normal" in="SourceGraphic" in2="BackgroundImageFix" result="shape" />
                        <feGaussianBlur stdDeviation="182" result="effect1_foregroundBlur_21_100" />
                    </filter>
                    <filter id="filter2_f_21_100" x="-422" y="379" width="2284" height="1854" filterUnits="userSpaceOnUse" color-interpolation-filters="sRGB">
                        <feFlood flood-opacity="0" result="BackgroundImageFix" />
                        <feBlend mode="normal" in="SourceGraphic" in2="BackgroundImageFix" result="shape" />
                        <feGaussianBlur stdDeviation="182" result="effect1_foregroundBlur_21_100" />
                    </filter>
                </defs>
            </svg>