<svg width="318" height="448" viewBox="0 0 318 448" fill="none" xmlns="http://www.w3.org/2000/svg">
<g filter="url(#filter0_b_21_15014)">
<g clip-path="url(#clip0_21_15014)">
<rect width="317.333" height="448" rx="16" fill="url(#paint0_linear_21_15014)" fill-opacity="0.36"/>
<line x1="109" y1="446" x2="210" y2="446" stroke="#00FFC2" stroke-width="4" stroke-linecap="round"/>
<g filter="url(#filter1_f_21_15014)">
<line x1="107" y1="428" x2="212" y2="428" stroke="#00FFC2" stroke-width="40"/>
</g>
<path opacity="0.0526316" d="M-8.68471 177.535C-3.43919 184.514 13.326 196.192 38.4228 187.074C69.7938 175.677 81.9268 145.467 109.926 129.802C130.591 118.241 186.12 100.886 218.05 120.063" stroke="#00FFC2" stroke-width="3"/>
<path opacity="0.105263" d="M-13.8587 162.905C-9.37138 170.393 6.08132 183.76 31.9937 177.315C64.3841 169.26 79.6085 140.483 109.092 127.831C130.852 118.493 187.891 107.038 217.641 129.448" stroke="#00FFC2" stroke-width="3"/>
<path opacity="0.157895" d="M-17.7674 148.077C-14.0875 155.994 -0.116621 170.902 26.3274 167.202C59.3825 162.576 77.5314 135.549 108.175 126.048C130.793 119.036 188.717 113.605 215.962 139.002" stroke="#00FFC2" stroke-width="3"/>
<path opacity="0.210526" d="M-20.3973 133.185C-17.5651 141.444 -5.22913 157.731 21.4568 156.815C54.8143 155.67 75.6889 130.687 107.158 124.442C130.385 119.832 188.559 120.486 213 148.591" stroke="#00FFC2" stroke-width="3"/>
<path opacity="0.263158" d="M-21.7487 118.364C-19.7951 126.873 -9.22924 144.36 17.4063 146.238C50.7007 148.587 74.0724 125.923 106.022 123.001C129.603 120.844 187.39 127.576 208.76 158.082" stroke="#00FFC2" stroke-width="3"/>
<path opacity="0.315789" d="M-21.8357 103.746C-20.7823 112.412 -12.1022 130.908 14.191 135.56C47.0576 141.376 72.6703 121.279 104.75 121.713C128.428 122.033 185.195 134.768 203.258 167.341" stroke="#00FFC2" stroke-width="3"/>
<path opacity="0.368421" d="M-20.6867 89.4613C-20.545 98.1904 -13.8458 117.493 11.8171 124.868C43.8958 134.087 71.4688 116.778 103.328 120.562C126.842 123.356 181.967 141.954 196.527 176.237" stroke="#00FFC2" stroke-width="3"/>
<path opacity="0.421053" d="M-18.3433 75.639C-19.1148 84.3351 -14.4699 104.232 10.2815 114.249C41.2208 126.771 70.4521 112.439 101.741 119.533C124.835 124.769 177.713 149.028 188.61 184.644" stroke="#00FFC2" stroke-width="3"/>
<path opacity="0.473684" d="M-14.8604 62.4006C-16.5366 70.9684 -13.997 91.2415 9.57177 103.791C39.0327 119.478 69.6019 108.28 99.978 118.606C122.398 126.227 172.451 155.881 179.565 192.441" stroke="#00FFC2" stroke-width="3"/>
<path opacity="0.526316" d="M-10.305 49.8619C-12.8677 58.2076 -12.4611 78.6352 9.66677 93.5797C37.3266 112.26 68.8989 104.319 98.0291 117.763C119.529 127.686 166.209 162.409 169.462 199.513" stroke="#00FFC2" stroke-width="3"/>
<path opacity="0.578947" d="M-4.75658 38.1313C-8.17757 46.1634 -9.90843 66.5216 10.5361 83.6972C36.0917 105.167 68.3211 100.569 95.8865 116.985C116.232 129.101 159.026 168.513 158.383 205.753" stroke="#00FFC2" stroke-width="3"/>
<path opacity="0.631579" d="M1.69529 27.3086C-2.54654 34.9392 -6.39592 55.0048 12.1412 74.2234C35.3126 98.2467 67.8461 97.043 93.5446 116.25C112.512 130.426 150.952 174.096 146.42 211.065" stroke="#00FFC2" stroke-width="3"/>
<path opacity="0.684211" d="M8.95066 17.4828C3.93446 24.6281 -1.99127 44.1815 14.4354 65.2325C34.9688 91.5462 67.4499 93.7498 90.9999 115.538C108.382 131.619 142.046 179.067 133.675 215.361" stroke="#00FFC2" stroke-width="3"/>
<path opacity="0.736842" d="M16.9009 8.73225C11.1653 15.3141 3.22818 34.141 17.3645 56.7937C35.0348 85.1096 67.1076 90.6963 88.2512 114.827C103.857 132.637 132.377 183.344 120.258 218.563" stroke="#00FFC2" stroke-width="3"/>
<path opacity="0.789474" d="M25.4299 1.12427C19.0377 7.07052 9.1761 24.9646 20.8671 48.9709C35.4808 78.9787 66.794 87.8873 85.2994 114.096C98.9577 133.439 122.022 186.85 106.287 220.609" stroke="#00FFC2" stroke-width="3"/>
<path opacity="0.842105" d="M34.4149 -5.28743C27.4362 -0.0419158 15.7582 16.7233 24.8758 41.8201C36.2728 73.1911 66.4832 85.3241 82.1477 113.323C93.7093 133.989 111.064 189.517 91.8868 221.447" stroke="#00FFC2" stroke-width="3"/>
<path opacity="0.894737" d="M43.7286 -10.4614C36.2398 -5.9741 22.8733 9.4786 29.3176 35.391C37.373 67.7814 66.1497 83.0057 78.8017 112.489C88.1398 134.25 99.5949 191.288 77.1854 221.039" stroke="#00FFC2" stroke-width="3"/>
<path opacity="0.947368" d="M53.2396 -14.37C45.3228 -10.6901 30.4143 3.28075 34.1147 29.7248C38.7403 62.7798 65.7679 80.9287 75.2688 111.573C82.2811 134.19 87.7113 192.114 62.3148 219.359" stroke="#00FFC2" stroke-width="3"/>
<path d="M62.8146 -17C54.5565 -14.1678 38.2693 -1.83179 39.1853 24.8542C40.3304 58.2116 65.3129 79.0863 71.5585 110.556C76.1682 133.782 75.5141 191.956 47.4087 216.397" stroke="#00FFC2" stroke-width="3"/>
</g>
<rect x="0.5" y="0.5" width="316.333" height="447" rx="15.5" stroke="#0E211C"/>
</g>
<defs>
<filter id="filter0_b_21_15014" x="-8" y="-8" width="333.333" height="464" filterUnits="userSpaceOnUse" color-interpolation-filters="sRGB">
<feFlood flood-opacity="0" result="BackgroundImageFix"/>
<feGaussianBlur in="BackgroundImageFix" stdDeviation="4"/>
<feComposite in2="SourceAlpha" operator="in" result="effect1_backgroundBlur_21_15014"/>
<feBlend mode="normal" in="SourceGraphic" in2="effect1_backgroundBlur_21_15014" result="shape"/>
</filter>
<filter id="filter1_f_21_15014" x="-43" y="258" width="405" height="340" filterUnits="userSpaceOnUse" color-interpolation-filters="sRGB">
<feFlood flood-opacity="0" result="BackgroundImageFix"/>
<feBlend mode="normal" in="SourceGraphic" in2="BackgroundImageFix" result="shape"/>
<feGaussianBlur stdDeviation="75" result="effect1_foregroundBlur_21_15014"/>
</filter>
<linearGradient id="paint0_linear_21_15014" x1="158.667" y1="-10.5" x2="158.667" y2="448" gradientUnits="userSpaceOnUse">
<stop stop-color="#224E44"/>
<stop offset="1" stop-color="#16141F" stop-opacity="0"/>
</linearGradient>
<clipPath id="clip0_21_15014">
<rect width="317.333" height="448" rx="16" fill="white"/>
</clipPath>
</defs>
</svg>
