<svg width="318" height="448" viewBox="0 0 318 448" fill="none" xmlns="http://www.w3.org/2000/svg">
<g clip-path="url(#clip0_21_15022)">
<rect x="0.333344" width="317.333" height="448" rx="16" fill="url(#paint0_linear_21_15022)"/>
<path opacity="0.0344828" d="M-11.7551 23.9985C-10.7901 22.8484 -9.29702 22.0845 -7.2037 21.7705C-5.10207 21.4553 -2.45901 21.6056 0.686388 22.2343C6.97618 23.4915 15.0669 26.6181 24.4239 31.3783C43.1234 40.8911 66.6797 56.8241 90.6412 76.9301C114.603 97.0362 134.384 117.468 147 134.231C153.312 142.62 157.796 150.045 160.127 156.02C161.292 159.009 161.899 161.586 161.953 163.71C162.008 165.826 161.515 167.429 160.55 168.579C159.585 169.729 158.091 170.493 155.998 170.807C153.897 171.122 151.253 170.972 148.108 170.344C141.818 169.086 133.728 165.96 124.371 161.2C105.671 151.687 82.1147 135.754 58.1533 115.648C34.1918 95.5416 14.4104 75.1099 1.79494 58.3464C-4.51774 49.9582 -9.00181 42.5333 -11.3321 36.5574C-12.4974 33.5689 -13.1044 30.9921 -13.1589 28.8677C-13.2132 26.7516 -12.7202 25.1486 -11.7551 23.9985Z" stroke="#56776F" stroke-width="2"/>
<path opacity="0.0689655" d="M-5.12683 15.8592C-4.0652 14.7976 -2.51127 14.1668 -0.398548 14.0364C1.72255 13.9056 4.34246 14.2856 7.4211 15.1861C13.5774 16.9867 21.3648 20.8065 30.2714 26.3641C48.0705 37.4706 70.1486 55.396 92.2665 77.5139C114.384 99.6318 132.31 121.71 143.416 139.509C148.974 148.416 152.794 156.203 154.594 162.359C155.495 165.438 155.875 168.058 155.744 170.179C155.614 172.292 154.983 173.846 153.921 174.907C152.86 175.969 151.306 176.6 149.193 176.73C147.072 176.861 144.452 176.481 141.373 175.58C135.217 173.78 127.43 169.96 118.523 164.402C100.724 153.296 78.6457 135.371 56.5278 113.253C34.4099 91.1347 16.4845 69.0566 5.37805 51.2574C-0.179525 42.3509 -3.99941 34.5635 -5.79999 28.4072C-6.70042 25.3285 -7.08048 22.7086 -6.94963 20.5875C-6.8193 18.4748 -6.18846 16.9209 -5.12683 15.8592Z" stroke="#56776F" stroke-width="2"/>
<path opacity="0.103448" d="M2.1068 8.325C3.25691 7.35994 4.85991 6.86694 6.97595 6.92124C9.10039 6.97575 11.6772 7.5827 14.6656 8.74803C20.6416 11.0783 28.0664 15.5624 36.4547 21.8751C53.2182 34.4905 73.6499 54.272 93.756 78.2334C113.862 102.195 129.795 125.751 139.308 144.451C144.068 153.808 147.195 161.898 148.452 168.188C149.081 171.334 149.231 173.977 148.916 176.078C148.602 178.172 147.838 179.665 146.688 180.63C145.537 181.595 143.934 182.088 141.818 182.033C139.694 181.979 137.117 181.372 134.129 180.207C128.153 177.876 120.728 173.392 112.34 167.08C95.5762 154.464 75.1445 134.683 55.0384 110.721C34.9324 86.7598 18.9994 63.2035 9.48654 44.5041C4.72638 35.147 1.59975 27.0563 0.342574 20.7665C-0.286109 17.6211 -0.436383 14.978 -0.121161 12.8764C0.192811 10.7831 0.956679 9.29006 2.1068 8.325Z" stroke="#56776F" stroke-width="2"/>
<path opacity="0.137931" d="M9.89052 1.44628C11.1204 0.585127 12.7602 0.233713 14.8635 0.472232C16.9751 0.711692 19.4892 1.54092 22.3647 2.96227C28.1148 5.80453 35.1206 10.9187 42.9268 17.9384C58.5269 31.9669 77.1569 53.4538 95.098 79.0764C113.039 104.699 126.858 129.554 134.705 149.012C138.632 158.748 141.041 167.081 141.746 173.456C142.098 176.644 142.017 179.29 141.52 181.356C141.025 183.414 140.134 184.835 138.904 185.696C137.674 186.558 136.034 186.909 133.931 186.67C131.819 186.431 129.305 185.602 126.43 184.18C120.68 181.338 113.674 176.224 105.868 169.204C90.2674 155.176 71.6375 133.689 53.6963 108.066C35.7552 82.4436 21.9359 57.5882 14.089 38.1308C10.1624 28.3945 7.75286 20.0621 7.04866 13.6867C6.69651 10.4985 6.77717 7.85236 7.27436 5.7862C7.76958 3.72821 8.66067 2.30743 9.89052 1.44628Z" stroke="#56776F" stroke-width="2"/>
<path opacity="0.172414" d="M18.1652 -4.73104C19.4654 -5.48173 21.1297 -5.68888 23.2042 -5.26796C25.2869 -4.84537 27.7191 -3.80018 30.4598 -2.13362C35.9403 1.19897 42.4737 6.90423 49.6384 14.5776C63.9565 29.9124 80.6428 52.9412 96.2826 80.03C111.922 107.119 123.523 133.084 129.644 153.151C132.707 163.193 134.381 171.703 134.527 178.116C134.6 181.323 134.289 183.952 133.614 185.967C132.941 187.974 131.929 189.311 130.629 190.062C129.329 190.813 127.665 191.02 125.59 190.599C123.507 190.176 121.075 189.131 118.335 187.465C112.854 184.132 106.321 178.427 99.156 170.753C84.8378 155.419 68.1515 132.39 52.5118 105.301C36.872 78.2123 25.2717 52.2471 19.1504 32.1799C16.0874 22.1384 14.4132 13.6276 14.2674 7.2151C14.1944 4.00831 14.5054 1.37931 15.1808 -0.635645C15.8535 -2.64265 16.865 -3.98036 18.1652 -4.73104Z" stroke="#56776F" stroke-width="2"/>
<path opacity="0.206897" d="M26.8679 -10.1672C28.2286 -10.8017 29.9046 -10.863 31.9344 -10.2629C33.9724 -9.66043 36.3043 -8.40723 38.8893 -6.50814C44.0585 -2.71057 50.0698 3.5424 56.5384 11.811C69.4655 28.3353 84.0813 52.7309 97.3006 81.0797C110.52 109.428 119.813 136.306 124.162 156.83C126.338 167.101 127.264 175.725 126.851 182.126C126.644 185.327 126.105 187.918 125.257 189.867C124.411 191.808 123.287 193.052 121.926 193.687C120.566 194.321 118.89 194.382 116.86 193.782C114.822 193.18 112.49 191.927 109.905 190.028C104.736 186.23 98.7246 179.977 92.2559 171.708C79.3288 155.184 64.7131 130.789 51.4938 102.44C38.2745 74.0909 28.9813 47.2134 24.6323 26.6891C22.4562 16.4189 21.5301 7.79459 21.9437 1.39374C22.1505 -1.80721 22.6894 -4.3991 23.5378 -6.34752C24.3829 -8.28826 25.5072 -9.53272 26.8679 -10.1672Z" stroke="#56776F" stroke-width="2"/>
<path opacity="0.241379" d="M35.9322 -14.8281C37.3431 -15.3416 39.018 -15.2566 40.9879 -14.4819C42.9655 -13.704 45.1794 -12.2524 47.589 -10.1352C52.4076 -5.90156 57.851 0.851539 63.5744 9.65248C75.0121 27.2406 87.446 52.8171 98.1442 82.2102C108.842 111.603 115.758 139.188 118.301 160.014C119.574 170.434 119.745 179.107 118.775 185.447C118.29 188.618 117.527 191.153 116.512 193.02C115.501 194.88 114.273 196.021 112.862 196.535C111.451 197.048 109.776 196.963 107.806 196.189C105.829 195.411 103.615 193.959 101.205 191.842C96.3868 187.608 90.9433 180.855 85.22 172.054C73.7822 154.466 61.3483 128.89 50.6501 99.4966C39.9519 70.1035 33.0366 42.5184 30.493 21.6931C29.2202 11.2723 29.0493 2.60015 30.0192 -3.7403C30.5042 -6.91104 31.267 -9.44609 32.282 -11.3132C33.293 -13.1729 34.5214 -14.3146 35.9322 -14.8281Z" stroke="#56776F" stroke-width="2"/>
<path opacity="0.275862" d="M45.2894 -18.6838C46.7396 -19.0723 48.4007 -18.8417 50.2956 -17.8982C52.1979 -16.951 54.2768 -15.3119 56.4928 -12.9928C60.924 -8.35527 65.7582 -1.15344 70.6927 8.11283C80.554 26.6309 90.7114 53.1938 98.8072 83.4074C106.903 113.621 111.388 141.704 112.107 162.672C112.466 173.164 111.881 181.818 110.362 188.05C109.602 191.166 108.622 193.625 107.448 195.396C106.278 197.161 104.955 198.191 103.505 198.58C102.055 198.968 100.394 198.738 98.4988 197.794C96.5964 196.847 94.5175 195.208 92.3016 192.889C87.8704 188.251 83.0362 181.05 78.1017 171.783C68.2404 153.265 58.0829 126.702 49.9872 96.4887C41.8915 66.275 37.4066 38.1922 36.6878 17.2244C36.328 6.73233 36.9136 -1.92172 38.4324 -8.15352C39.192 -11.2699 40.1728 -13.7288 41.3466 -15.5003C42.5159 -17.2649 43.8392 -18.2952 45.2894 -18.6838Z" stroke="#56776F" stroke-width="2"/>
<path opacity="0.310345" d="M54.868 -21.713C56.3465 -21.9737 57.9813 -21.5992 59.7867 -20.4941C61.5992 -19.3847 63.5273 -17.5707 65.5327 -15.0673C69.5429 -10.0612 73.731 -2.46545 77.8391 7.19563C86.0489 26.5027 93.8527 53.8498 99.2843 84.654C104.716 115.458 106.736 143.825 105.625 164.776C105.069 175.259 103.731 183.829 101.675 189.905C100.647 192.943 99.4553 195.308 98.1315 196.97C96.8129 198.626 95.4048 199.537 93.9263 199.798C92.4477 200.058 90.813 199.684 89.0076 198.579C87.195 197.469 85.2669 195.655 83.2615 193.152C79.2513 188.146 75.0632 180.55 70.9551 170.889C62.7453 151.582 54.9416 124.235 49.51 93.4306C44.0783 62.6263 42.0582 34.2594 43.1695 13.3088C43.7256 2.82531 45.0632 -5.74477 47.1194 -11.8205C48.1476 -14.8588 49.339 -17.2229 50.6628 -18.8854C51.9814 -20.5413 53.3894 -21.4523 54.868 -21.713Z" stroke="#56776F" stroke-width="2"/>
<path opacity="0.344828" d="M64.5953 -23.8996C66.091 -24.0305 67.6868 -23.5149 69.3891 -22.2567C71.098 -20.9935 72.8607 -19.0183 74.6403 -16.3497C78.1989 -11.0131 81.709 -3.08128 84.9595 6.90109C91.4554 26.8502 96.8459 54.7734 99.5721 85.9338C102.298 117.094 101.838 145.529 98.9054 166.303C97.4377 176.698 95.3582 185.119 92.7804 190.993C91.4912 193.93 90.0983 196.181 88.6347 197.722C87.1768 199.257 85.6947 200.041 84.1991 200.172C82.7034 200.303 81.1075 199.788 79.4053 198.529C77.6963 197.266 75.9337 195.291 74.1541 192.622C70.5955 187.286 67.0854 179.354 63.8349 169.372C57.339 149.422 51.9485 121.499 49.2223 90.3388C46.4961 59.1784 46.9559 30.7434 49.889 9.96936C51.3567 -0.425791 53.4361 -8.84668 56.014 -14.7201C57.3031 -17.6572 58.696 -19.9085 60.1597 -21.4492C61.6176 -22.9839 63.0997 -23.7688 64.5953 -23.8996Z" stroke="#56776F" stroke-width="2"/>
<path opacity="0.37931" d="M74.3972 -25.2338C75.8986 -25.2338 77.4434 -24.5811 79.0295 -23.1794C80.6219 -21.772 82.2057 -19.6507 83.7459 -16.8371C86.8259 -11.2108 89.6313 -3.00314 91.9994 7.22453C96.7319 27.6639 99.6683 55.9506 99.6683 87.2301C99.6683 118.51 96.7319 146.796 91.9994 167.236C89.6313 177.463 86.8259 185.671 83.7459 191.297C82.2057 194.111 80.6219 196.232 79.0295 197.639C77.4434 199.041 75.8986 199.694 74.3972 199.694C72.8958 199.694 71.351 199.041 69.7649 197.639C68.1725 196.232 66.5887 194.111 65.0485 191.297C61.9685 185.671 59.163 177.463 56.7949 167.236C52.0625 146.796 49.1261 118.51 49.1261 87.2301C49.1261 55.9506 52.0625 27.6639 56.7949 7.22453C59.163 -3.00314 61.9685 -11.2108 65.0485 -16.8371C66.5887 -19.6507 68.1725 -21.772 69.7649 -23.1794C71.351 -24.5811 72.8958 -25.2338 74.3972 -25.2338Z" stroke="#56776F" stroke-width="2"/>
<path opacity="0.413793" d="M84.1991 -25.712C85.6947 -25.5812 87.1768 -24.7963 88.6347 -23.2616C90.0983 -21.7209 91.4912 -19.4696 92.7804 -16.5324C95.3582 -10.6591 97.4377 -2.23816 98.9054 8.15699C101.838 28.931 102.298 57.366 99.5721 88.5265C96.8459 119.687 91.4554 147.61 84.9595 167.559C81.709 177.542 78.1989 185.473 74.6403 190.81C72.8607 193.479 71.098 195.454 69.3891 196.717C67.6868 197.975 66.091 198.491 64.5953 198.36C63.0996 198.229 61.6176 197.444 60.1597 195.909C58.696 194.369 57.3031 192.117 56.014 189.18C53.4361 183.307 51.3567 174.886 49.889 164.491C46.9559 143.717 46.4961 115.282 49.2223 84.1214C51.9484 52.961 57.339 25.0378 63.8349 5.08871C67.0853 -4.89365 70.5955 -12.8255 74.1541 -18.162C75.9337 -20.8307 77.6963 -22.8059 79.4053 -24.0691C81.1075 -25.3273 82.7034 -25.8429 84.1991 -25.712Z" stroke="#56776F" stroke-width="2"/>
<path opacity="0.448276" d="M93.9264 -25.3374C95.4049 -25.0766 96.813 -24.1656 98.1316 -22.5097C99.4554 -20.8472 100.647 -18.4831 101.675 -15.4448C103.731 -9.36909 105.069 -0.799003 105.625 9.68451C106.736 30.6351 104.716 59.002 99.2844 89.8063C93.8528 120.611 86.049 147.958 77.8392 167.265C73.7311 176.926 69.543 184.521 65.5328 189.528C63.5274 192.031 61.5993 193.845 59.7868 194.954C57.9814 196.059 56.3466 196.434 54.8681 196.173C53.3895 195.913 51.9815 195.002 50.6629 193.346C49.3391 191.683 48.1477 189.319 47.1194 186.281C45.0633 180.205 43.7257 171.635 43.1696 161.151C42.0583 140.201 44.0784 111.834 49.5101 81.0297C54.9417 50.2254 62.7454 22.8784 70.9552 3.57131C75.0633 -6.08977 79.2514 -13.6855 83.2616 -18.6916C85.267 -21.195 87.1951 -23.009 89.0077 -24.1185C90.8131 -25.2235 92.4478 -25.5981 93.9264 -25.3374Z" stroke="#56776F" stroke-width="2"/>
<path opacity="0.482759" d="M103.505 -24.1193C104.955 -23.7307 106.278 -22.7004 107.448 -20.9359C108.622 -19.1644 109.602 -16.7054 110.362 -13.589C111.881 -7.35723 112.466 1.29683 112.107 11.7889C111.388 32.7567 106.903 60.8395 98.8072 91.0532C90.7114 121.267 80.554 147.83 70.6927 166.348C65.7582 175.614 60.924 182.816 56.4928 187.453C54.2768 189.772 52.1979 191.412 50.2956 192.359C48.4007 193.302 46.7396 193.533 45.2894 193.144C43.8392 192.756 42.5159 191.725 41.3466 189.961C40.1728 188.189 39.192 185.73 38.4324 182.614C36.9136 176.382 36.328 167.728 36.6878 157.236C37.4066 136.268 41.8915 108.186 49.9872 77.9719C58.0829 47.7583 68.2404 21.1954 78.1017 2.67732C83.0362 -6.58895 87.8704 -13.7908 92.3016 -18.4283C94.5175 -20.7474 96.5964 -22.3865 98.4988 -23.3337C100.394 -24.2772 102.055 -24.5079 103.505 -24.1193Z" stroke="#56776F" stroke-width="2"/>
<path opacity="0.517241" d="M112.862 -22.075C114.273 -21.5615 115.501 -20.4198 116.512 -18.5601C117.527 -16.693 118.29 -14.158 118.775 -10.9872C119.745 -4.64678 119.574 4.02538 118.301 14.4462C115.758 35.2715 108.842 62.8566 98.1442 92.2497C87.446 121.643 75.0121 147.219 63.5744 164.807C57.851 173.608 52.4076 180.361 47.589 184.595C45.1794 186.712 42.9656 188.164 40.9879 188.942C39.018 189.716 37.3431 189.801 35.9323 189.288C34.5214 188.774 33.293 187.633 32.282 185.773C31.267 183.906 30.5042 181.371 30.0192 178.2C29.0493 171.86 29.2202 163.188 30.493 152.767C33.0366 131.941 39.9519 104.356 50.6501 74.9633C61.3483 45.5702 73.7823 19.9937 85.22 2.40555C90.9433 -6.39539 96.3868 -13.1485 101.205 -17.3821C103.615 -19.4993 105.829 -20.951 107.806 -21.7288C109.776 -22.5035 111.451 -22.5885 112.862 -22.075Z" stroke="#56776F" stroke-width="2"/>
<path opacity="0.551724" d="M121.926 -19.2261C123.287 -18.5916 124.411 -17.3471 125.257 -15.4064C126.105 -13.458 126.644 -10.8661 126.851 -7.66514C127.264 -1.26429 126.338 7.35998 124.162 17.6302C119.813 38.1546 110.52 65.032 97.3005 93.3808C84.0813 121.73 69.4655 146.125 56.5384 162.649C50.0698 170.918 44.0585 177.171 38.8893 180.969C36.3043 182.868 33.9724 184.121 31.9344 184.723C29.9045 185.324 28.2286 185.262 26.8679 184.628C25.5072 183.993 24.3829 182.749 23.5378 180.808C22.6894 178.86 22.1505 176.268 21.9437 173.067C21.5301 166.666 22.4561 158.042 24.6323 147.771C28.9813 127.247 38.2745 100.37 51.4938 72.0208C64.7131 43.672 79.3288 19.2765 92.2559 2.75215C98.7245 -5.51648 104.736 -11.7695 109.905 -15.567C112.49 -17.4661 114.822 -18.7193 116.86 -19.3218C118.89 -19.9219 120.566 -19.8606 121.926 -19.2261Z" stroke="#56776F" stroke-width="2"/>
<path opacity="0.586207" d="M130.629 -15.6018C131.929 -14.8511 132.941 -13.5134 133.614 -11.5064C134.289 -9.49145 134.6 -6.86245 134.527 -3.65566C134.381 2.75688 132.707 11.2676 129.644 21.3091C123.523 41.3763 111.922 67.3415 96.2826 94.4303C80.6428 121.519 63.9565 144.548 49.6384 159.883C42.4737 167.556 35.9403 173.261 30.4598 176.594C27.7191 178.261 25.2869 179.306 23.2042 179.728C21.1297 180.149 19.4655 179.942 18.1652 179.191C16.865 178.441 15.8535 177.103 15.1808 175.096C14.5054 173.081 14.1944 170.452 14.2674 167.245C14.4132 160.833 16.0874 152.322 19.1504 142.28C25.2717 122.213 36.872 96.2481 52.5118 69.1593C68.1515 42.0704 84.8379 19.0416 99.156 3.70686C106.321 -3.96653 112.854 -9.67179 118.335 -13.0044C121.075 -14.6709 123.507 -15.7161 125.59 -16.1387C127.665 -16.5596 129.329 -16.3525 130.629 -15.6018Z" stroke="#56776F" stroke-width="2"/>
<path opacity="0.62069" d="M138.904 -11.236C140.134 -10.3748 141.025 -8.95406 141.52 -6.89606C142.017 -4.82991 142.098 -2.18381 141.746 1.00442C141.041 7.37985 138.632 15.7123 134.705 25.4486C126.858 44.9059 113.039 69.7613 95.098 95.384C77.1569 121.007 58.5269 142.493 42.9268 156.522C35.1206 163.542 28.1148 168.656 22.3647 171.498C19.4892 172.919 16.9751 173.749 14.8635 173.988C12.7602 174.227 11.1204 173.875 9.89051 173.014C8.66066 172.153 7.76957 170.732 7.27435 168.674C6.77716 166.608 6.6965 163.962 7.04865 160.774C7.75285 154.398 10.1624 146.066 14.089 136.33C21.9359 116.872 35.7551 92.0168 53.6963 66.3942C71.6375 40.7715 90.2674 19.2846 105.868 5.25613C113.674 -1.76361 120.68 -6.87774 126.43 -9.71999C129.305 -11.1413 131.819 -11.9706 133.931 -12.21C136.034 -12.4486 137.674 -12.0971 138.904 -11.236Z" stroke="#56776F" stroke-width="2"/>
<path opacity="0.655172" d="M146.688 -6.16949C147.838 -5.20443 148.602 -3.71139 148.916 -1.61807C149.231 0.483561 149.08 3.12662 148.452 6.27202C147.195 12.5618 144.068 20.6525 139.308 30.0096C129.795 48.709 113.862 72.2653 93.756 96.2268C73.6499 120.188 53.2182 139.97 36.4547 152.585C28.0664 158.898 20.6416 163.382 14.6656 165.712C11.6772 166.878 9.10037 167.484 6.97593 167.539C4.85989 167.593 3.25689 167.1 2.10678 166.135C0.95666 165.17 0.192793 163.677 -0.121181 161.584C-0.436402 159.482 -0.286129 156.839 0.342559 153.694C1.59973 147.404 4.72636 139.313 9.48653 129.956C18.9994 111.257 34.9324 87.7004 55.0384 63.7389C75.1445 39.7775 95.5762 19.996 112.34 7.38057C120.728 1.06789 128.153 -3.41618 134.129 -5.74646C137.117 -6.91179 139.694 -7.51874 141.818 -7.57325C143.934 -7.62755 145.537 -7.13455 146.688 -6.16949Z" stroke="#56776F" stroke-width="2"/>
<path opacity="0.689655" d="M153.921 -0.446945C154.983 0.614684 155.614 2.16861 155.744 4.28134C155.875 6.40244 155.495 9.02234 154.594 12.101C152.794 18.2573 148.974 26.0447 143.416 34.9513C132.31 52.7504 114.384 74.8285 92.2666 96.9464C70.1486 119.064 48.0706 136.99 30.2714 148.096C21.3649 153.654 13.5774 157.474 7.42113 159.274C4.34249 160.175 1.72258 160.555 -0.398518 160.424C-2.51124 160.294 -4.06517 159.663 -5.1268 158.601C-6.18843 157.539 -6.81926 155.985 -6.9496 153.873C-7.08045 151.752 -6.70039 149.132 -5.79996 146.053C-3.99938 139.897 -0.17949 132.109 5.37808 123.203C16.4845 105.404 34.4099 83.3256 56.5278 61.2077C78.6458 39.0898 100.724 21.1644 118.523 10.0579C127.43 4.50036 135.217 0.680477 141.373 -1.12011C144.452 -2.02054 147.072 -2.4006 149.193 -2.26974C151.306 -2.13941 152.86 -1.50858 153.921 -0.446945Z" stroke="#56776F" stroke-width="2"/>
<path opacity="0.724138" d="M160.55 5.88083C161.515 7.03095 162.008 8.63394 161.953 10.75C161.899 12.8744 161.292 15.4512 160.127 18.4397C157.796 24.4156 153.312 31.8405 146.999 40.2288C134.384 56.9922 114.603 77.424 90.6411 97.53C66.6797 117.636 43.1233 133.569 24.4239 143.082C15.0669 147.842 6.97615 150.969 0.686357 152.226C-2.45905 152.855 -5.10211 153.005 -7.20373 152.69C-9.29706 152.376 -10.7901 151.612 -11.7552 150.462C-12.7202 149.312 -13.2132 147.709 -13.1589 145.592C-13.1044 143.468 -12.4975 140.891 -11.3321 137.903C-9.00184 131.927 -4.51777 124.502 1.7949 116.114C14.4104 99.3503 34.1918 78.9185 58.1533 58.8125C82.1147 38.7064 105.671 22.7735 124.37 13.2606C133.728 8.50041 141.818 5.37378 148.108 4.11661C151.253 3.48792 153.896 3.33765 155.998 3.65287C158.091 3.96684 159.584 4.73071 160.55 5.88083Z" stroke="#56776F" stroke-width="2"/>
<path opacity="0.758621" d="M166.522 12.7586C167.383 13.9884 167.735 15.6283 167.496 17.7316C167.257 19.8432 166.428 22.3573 165.006 25.2328C162.164 30.9829 157.05 37.9887 150.03 45.7948C136.002 61.395 114.515 80.0249 88.8921 97.9661C63.2695 115.907 38.4141 129.727 18.9568 137.573C9.22046 141.5 0.888014 143.91 -5.48741 144.614C-8.67565 144.966 -11.3217 144.885 -13.3879 144.388C-15.4459 143.893 -16.8667 143.002 -17.7278 141.772C-18.589 140.542 -18.9404 138.902 -18.7019 136.799C-18.4624 134.687 -17.6332 132.173 -16.2118 129.298C-13.3696 123.548 -8.25544 116.542 -1.2357 108.736C12.7928 93.1355 34.2797 74.5055 59.9023 56.5644C85.525 38.6232 110.38 24.804 129.838 16.957C139.574 13.0305 147.906 10.6209 154.282 9.91672C157.47 9.56457 160.116 9.64523 162.182 10.1424C164.24 10.6376 165.661 11.5287 166.522 12.7586Z" stroke="#56776F" stroke-width="2"/>
<path opacity="0.793103" d="M171.794 20.1274C172.544 21.4276 172.752 23.0918 172.331 25.1663C171.908 27.249 170.863 29.6813 169.196 32.422C165.864 37.9025 160.159 44.4359 152.485 51.6005C137.15 65.9186 114.122 82.605 87.0327 98.2447C59.9439 113.884 33.9787 125.485 13.9115 131.606C3.87003 134.669 -4.64071 136.343 -11.0532 136.489C-14.26 136.562 -16.889 136.251 -18.904 135.576C-20.911 134.903 -22.2487 133.891 -22.9994 132.591C-23.7501 131.291 -23.9572 129.627 -23.5363 127.552C-23.1137 125.47 -22.0685 123.037 -20.402 120.297C-17.0694 114.816 -11.3641 108.283 -3.69073 101.118C11.644 86.8 34.6729 70.1136 61.7617 54.4739C88.8505 38.8342 114.816 27.2338 134.883 21.1126C144.924 18.0496 153.435 16.3754 159.848 16.2295C163.054 16.1566 165.683 16.4675 167.698 17.1429C169.705 17.8156 171.043 18.8271 171.794 20.1274Z" stroke="#56776F" stroke-width="2"/>
<path opacity="0.827586" d="M176.324 27.924C176.959 29.2848 177.02 30.9607 176.42 32.9906C175.817 35.0286 174.564 37.3605 172.665 39.9455C168.867 45.1147 162.614 51.126 154.346 57.5946C137.822 70.5217 113.426 85.1375 85.0772 98.3567C56.7284 111.576 29.8509 120.869 9.32656 125.218C-0.943658 127.394 -9.56793 128.32 -15.9688 127.907C-19.1697 127.7 -21.7616 127.161 -23.7101 126.313C-25.6508 125.468 -26.8952 124.343 -27.5297 122.983C-28.1643 121.622 -28.2256 119.946 -27.6255 117.916C-27.023 115.878 -25.7698 113.546 -23.8707 110.961C-20.0731 105.792 -13.8201 99.7807 -5.55149 93.3121C10.9728 80.385 35.3683 65.7692 63.7171 52.55C92.066 39.3307 118.943 30.0375 139.468 25.6885C149.738 23.5123 158.362 22.5863 164.763 22.9998C167.964 23.2067 170.556 23.7456 172.504 24.594C174.445 25.4391 175.69 26.5633 176.324 27.924Z" stroke="#56776F" stroke-width="2"/>
<path opacity="0.862069" d="M180.079 36.0826C180.592 37.4934 180.507 39.1684 179.732 41.1382C178.955 43.1159 177.503 45.3297 175.386 47.7394C171.152 52.5579 164.399 58.0014 155.598 63.7247C138.01 75.1624 112.433 87.5964 83.0404 98.2946C53.6473 108.993 26.0622 115.908 5.23688 118.452C-5.18393 119.725 -13.8561 119.895 -20.1965 118.926C-23.3673 118.441 -25.9023 117.678 -27.7694 116.663C-29.6291 115.652 -30.7708 114.423 -31.2843 113.012C-31.7978 111.602 -31.7129 109.927 -30.9381 107.957C-30.1603 105.979 -28.7086 103.765 -26.5914 101.356C-22.3578 96.5371 -15.6047 91.0937 -6.80376 85.3703C10.7843 73.9326 36.3609 61.4987 65.7539 50.8005C95.147 40.1023 122.732 33.1869 143.557 30.6433C153.978 29.3705 162.65 29.1997 168.991 30.1695C172.162 30.6546 174.697 31.4173 176.564 32.4323C178.423 33.4433 179.565 34.6718 180.079 36.0826Z" stroke="#56776F" stroke-width="2"/>
<path opacity="0.896552" d="M183.029 44.5338C183.418 45.984 183.187 47.6452 182.243 49.54C181.296 51.4424 179.657 53.5213 177.338 55.7372C172.7 60.1684 165.499 65.0026 156.232 69.9371C137.714 79.7984 111.151 89.9559 80.9378 98.0516C50.7242 106.147 22.6413 110.632 1.67356 111.351C-8.81852 111.711 -17.4726 111.125 -23.7044 109.606C-26.8208 108.847 -29.2797 107.866 -31.0512 106.692C-32.8157 105.523 -33.846 104.2 -34.2346 102.749C-34.6232 101.299 -34.3926 99.6381 -33.4491 97.7432C-32.5018 95.8409 -30.8627 93.762 -28.5436 91.546C-23.9061 87.1148 -16.7043 82.2806 -7.43802 77.3461C11.08 67.4848 37.6429 57.3273 67.8565 49.2316C98.0702 41.1359 126.153 36.6511 147.121 35.9322C157.613 35.5725 166.267 36.1581 172.499 37.6769C175.615 38.4364 178.074 39.4172 179.846 40.5911C181.61 41.7603 182.64 43.0836 183.029 44.5338Z" stroke="#56776F" stroke-width="2"/>
<path opacity="0.931035" d="M185.153 53.2064C185.413 54.685 185.039 56.3197 183.934 58.1251C182.824 59.9377 181.01 61.8658 178.507 63.8712C173.501 67.8814 165.905 72.0694 156.244 76.1776C136.937 84.3874 109.59 92.1911 78.7855 97.6227C47.9812 103.054 19.6143 105.075 -1.3363 103.963C-11.8198 103.407 -20.3899 102.069 -26.4656 100.013C-29.504 98.9851 -31.868 97.7937 -33.5305 96.4699C-35.1864 95.1513 -36.0974 93.7433 -36.3582 92.2647C-36.6189 90.7862 -36.2443 89.1514 -35.1393 87.346C-34.0298 85.5335 -32.2158 83.6054 -29.7124 81.6C-24.7063 77.5898 -17.1106 73.4017 -7.44949 69.2936C11.8576 61.0837 39.2046 53.28 70.0089 47.8484C100.813 42.4168 129.18 40.3966 150.131 41.5079C160.614 42.064 169.184 43.4016 175.26 45.4578C178.298 46.486 180.662 47.6774 182.325 49.0012C183.981 50.3198 184.892 51.7279 185.153 53.2064Z" stroke="#56776F" stroke-width="2"/>
<path opacity="0.965517" d="M186.433 62.0282C186.564 63.5238 186.048 65.1197 184.79 66.8219C183.527 68.5309 181.552 70.2936 178.883 72.0732C173.547 75.6317 165.615 79.1419 155.632 82.3924C135.683 88.8882 107.76 94.2788 76.5997 97.005C45.4393 99.7312 17.0043 99.2713 -3.76977 96.3383C-14.1649 94.8706 -22.5858 92.7911 -28.4592 90.2133C-31.3964 88.9241 -33.6476 87.5312 -35.1884 86.0676C-36.723 84.6097 -37.5079 83.1276 -37.6388 81.6319C-37.7696 80.1363 -37.254 78.5404 -35.9958 76.8382C-34.7326 75.1292 -32.7575 73.3666 -30.0888 71.587C-24.7523 68.0284 -16.8204 64.5182 -6.83804 61.2677C13.1111 54.7719 41.0342 49.3813 72.1947 46.6551C103.355 43.929 131.79 44.3888 152.564 47.3219C162.959 48.7895 171.38 50.869 177.254 53.4469C180.191 54.736 182.442 56.1289 183.983 57.5926C185.517 59.0504 186.302 60.5325 186.433 62.0282Z" stroke="#56776F" stroke-width="2"/>
<path d="M186.861 70.9239C186.861 72.4253 186.208 73.9701 184.807 75.5562C183.399 77.1486 181.278 78.7324 178.464 80.2726C172.838 83.3526 164.63 86.1581 154.403 88.5261C133.963 93.2586 105.677 96.195 74.3972 96.195C43.1177 96.195 14.831 93.2586 -5.60833 88.5261C-15.836 86.1581 -24.0436 83.3526 -29.67 80.2726C-32.4836 78.7324 -34.6049 77.1486 -36.0122 75.5562C-37.414 73.9701 -38.0667 72.4253 -38.0667 70.9239C-38.0667 69.4225 -37.414 67.8777 -36.0122 66.2916C-34.6049 64.6992 -32.4836 63.1154 -29.67 61.5752C-24.0436 58.4952 -15.836 55.6898 -5.60833 53.3217C14.831 48.5892 43.1177 45.6528 74.3972 45.6528C105.677 45.6528 133.963 48.5892 154.403 53.3217C164.63 55.6898 172.838 58.4952 178.464 61.5752C181.278 63.1154 183.399 64.6992 184.807 66.2916C186.208 67.8777 186.861 69.4225 186.861 70.9239Z" stroke="#56776F" stroke-width="2"/>
</g>
<rect x="0.833344" y="0.5" width="316.333" height="447" rx="15.5" stroke="#0E211C"/>
<defs>
<linearGradient id="paint0_linear_21_15022" x1="159" y1="-10.5" x2="159" y2="448" gradientUnits="userSpaceOnUse">
<stop stop-color="#224E44"/>
<stop offset="1" stop-color="#16141F" stop-opacity="0"/>
</linearGradient>
<clipPath id="clip0_21_15022">
<rect x="0.333344" width="317.333" height="448" rx="16" fill="white"/>
</clipPath>
</defs>
</svg>
