<svg width="318" height="448" viewBox="0 0 318 448" fill="none" xmlns="http://www.w3.org/2000/svg">
<g clip-path="url(#clip0_21_15028)">
<rect x="0.666687" width="317.333" height="448" rx="16" fill="url(#paint0_linear_21_15028)"/>
<path opacity="0.0344828" d="M146.178 114.696C123.874 105.717 127.299 73.1313 150.982 68.986L185.467 62.9501C199.234 60.5403 208.606 47.6413 206.643 33.8031L201.727 -0.859074C198.351 -24.6637 228.284 -37.9906 243.715 -19.5533L266.185 7.29347C275.155 18.0115 291.012 19.6781 302.015 11.0594L329.575 -10.529C348.503 -25.3551 375.01 -6.09614 366.759 16.4864L354.744 49.3692C349.947 62.4969 356.432 77.0625 369.398 82.282L401.874 95.3558C424.177 104.334 420.752 136.92 397.07 141.065L362.585 147.101C348.817 149.511 339.446 162.41 341.408 176.248L346.324 210.911C349.7 234.715 319.768 248.042 304.336 229.605L281.867 202.758C272.896 192.04 257.039 190.373 246.036 198.992L218.476 220.58C199.549 235.406 173.041 216.148 181.292 193.565L193.308 160.682C198.104 147.555 191.619 132.989 178.654 127.769L146.178 114.696Z" stroke="#56776F" stroke-width="2"/>
<path opacity="0.0689655" d="M148.4 108.396C126.597 98.2622 131.723 65.9004 155.59 63.0003L188.557 58.9944C202.432 57.3085 212.466 44.9176 211.23 30.9957L208.294 -2.08383C206.169 -26.0326 236.758 -37.7746 251.203 -18.5549L271.156 7.99249C279.553 19.1653 295.301 21.6595 306.74 13.6285L333.92 -5.45394C353.597 -19.2691 379.06 1.35075 369.638 23.4705L356.624 54.0238C351.147 66.8824 356.86 81.7676 369.535 87.6584L399.651 101.656C421.454 111.789 416.328 144.151 392.461 147.051L359.494 151.057C345.619 152.743 335.585 165.134 336.821 179.056L339.757 212.135C341.882 236.084 311.293 247.826 296.848 228.606L276.895 202.059C268.498 190.886 252.75 188.392 241.311 196.423L214.132 215.505C194.454 229.32 168.991 208.701 178.413 186.581L191.427 156.028C196.905 143.169 191.191 128.284 178.516 122.393L148.4 108.396Z" stroke="#56776F" stroke-width="2"/>
<path opacity="0.103448" d="M150.925 102.354C129.683 91.0933 136.495 59.044 160.481 57.397L191.818 55.2453C205.761 54.2879 216.43 42.4391 215.925 28.4716L214.789 -2.91799C213.92 -26.9451 245.082 -37.0701 258.501 -17.1208L276.033 8.94138C283.834 20.5384 299.429 23.8533 311.273 16.4319L337.889 -0.246327C358.263 -13.0127 382.612 8.91152 372.045 30.5078L358.241 58.7218C352.098 71.2762 357.025 86.4399 369.374 92.986L397.126 107.697C418.368 118.958 411.556 151.007 387.57 152.654L356.233 154.806C342.29 155.764 331.621 167.612 332.126 181.58L333.262 212.969C334.131 236.997 302.97 247.122 289.55 227.172L272.018 201.11C264.217 189.513 248.622 186.198 236.778 193.619L210.162 210.298C189.788 223.064 165.439 201.14 176.006 179.544L189.81 151.33C195.953 138.775 191.026 123.611 178.677 117.065L150.925 102.354Z" stroke="#56776F" stroke-width="2"/>
<path opacity="0.137931" d="M153.732 96.5844C133.107 84.2273 141.588 52.5785 165.627 52.1891L195.234 51.7095C209.209 51.4831 220.483 40.209 220.709 26.2342L221.189 -3.37267C221.579 -27.4124 253.227 -35.8926 265.584 -15.2683L280.803 10.1321C287.987 22.1215 303.387 26.2481 315.603 19.4568L341.483 5.06868C362.497 -6.61392 385.665 16.5546 373.983 37.5683L359.595 63.4483C352.803 75.6641 356.93 91.0649 368.919 98.2483L394.32 113.467C414.944 125.824 406.464 157.473 382.424 157.862L352.817 158.342C338.842 158.568 327.568 169.842 327.342 183.817L326.862 213.424C326.473 237.464 294.824 245.944 282.467 225.32L267.248 199.919C260.065 187.93 244.664 183.803 232.448 190.595L206.568 204.983C185.555 216.665 162.386 193.497 174.069 172.483L188.457 146.603C195.248 134.387 191.121 118.987 179.132 111.803L153.732 96.5844Z" stroke="#56776F" stroke-width="2"/>
<path opacity="0.172414" d="M156.797 91.0995C136.848 77.6799 146.973 46.5183 171 47.3876L198.793 48.3931C212.761 48.8984 224.609 38.2297 225.567 24.2859L227.472 -3.45991C229.119 -27.4463 261.168 -34.2586 272.429 -13.0158L285.455 11.5564C292.001 23.9052 307.165 28.8322 319.719 22.6895L344.7 10.4665C366.297 -0.100303 388.221 24.249 375.454 44.6225L360.687 68.1892C353.266 80.0327 356.581 95.6284 368.178 103.429L391.254 118.952C411.203 132.372 401.078 163.533 377.051 162.664L349.258 161.659C335.29 161.153 323.442 171.822 322.484 185.766L320.579 213.512C318.932 237.498 286.883 244.31 275.622 223.068L262.596 198.495C256.05 186.147 240.886 181.22 228.332 187.362L203.351 199.585C181.754 210.152 159.83 185.803 172.597 165.429L187.364 141.863C194.785 130.019 191.47 114.423 179.873 106.622L156.797 91.0995Z" stroke="#56776F" stroke-width="2"/>
<path opacity="0.206897" d="M160.101 85.9099C140.881 71.4647 152.623 40.8757 176.572 43.0012L202.482 45.3008C216.404 46.5365 228.795 36.5025 230.481 22.6279L233.618 -3.19379C236.518 -27.0611 268.88 -32.1867 279.014 -10.3838L289.977 13.2046C295.868 25.8791 310.753 31.593 323.612 26.1157L347.543 15.9221C369.663 6.50004 390.282 31.9634 376.467 51.6408L361.521 72.9296C353.49 84.3685 355.984 100.116 367.157 108.514L387.95 124.142C407.17 138.587 395.428 169.176 371.479 167.05L345.569 164.751C331.647 163.515 319.257 173.549 317.571 187.424L314.433 213.245C311.533 237.113 279.171 242.238 269.038 220.435L258.074 196.847C252.183 184.172 237.298 178.459 224.439 183.936L200.508 194.13C178.389 203.552 157.769 178.088 171.584 158.411L186.53 137.122C194.561 125.683 192.067 109.935 180.894 101.538L160.101 85.9099Z" stroke="#56776F" stroke-width="2"/>
<path opacity="0.241379" d="M163.62 81.0253C145.182 65.594 158.509 35.6615 182.314 39.0375L206.286 42.4373C220.124 44.3999 233.023 35.0281 235.433 21.2608L239.608 -2.5888C243.753 -26.2716 276.339 -29.6965 285.317 -7.39309L294.359 15.0674C299.579 28.0329 314.144 34.518 327.272 29.7212L350.013 21.4116C372.596 13.1601 391.855 39.6677 377.029 58.5951L362.098 77.6558C353.48 88.6588 355.146 104.516 365.864 113.486L384.432 129.026C402.869 144.457 389.542 174.39 365.737 171.014L341.765 167.614C327.927 165.652 315.028 175.023 312.618 188.791L308.444 212.64C304.298 236.323 271.713 239.748 262.734 217.445L253.692 194.984C248.473 182.018 233.907 175.533 220.779 180.33L198.038 188.64C175.455 196.891 156.196 170.384 171.022 151.456L185.953 132.396C194.571 121.393 192.905 105.536 182.187 96.5653L163.62 81.0253Z" stroke="#56776F" stroke-width="2"/>
<path opacity="0.275862" d="M167.331 76.4546C149.727 60.0795 164.602 30.8854 188.197 35.5027L210.193 39.8069C223.909 42.491 237.281 33.8072 240.408 20.1848L245.422 -1.6598C250.801 -25.0932 283.522 -26.808 291.321 -4.06524L298.591 17.1356C303.125 30.3564 317.331 37.5949 330.692 33.4918L352.117 26.912C375.1 19.8537 392.946 47.3329 377.149 65.4585L362.424 82.3551C353.241 92.8919 354.076 108.814 364.309 118.333L380.72 133.598C398.325 149.973 383.45 179.167 359.854 174.55L337.859 170.246C324.142 167.562 310.77 176.246 307.643 189.868L302.629 211.713C297.25 235.146 264.53 236.861 256.731 214.118L249.46 192.917C244.927 179.696 230.72 172.458 217.36 176.561L195.934 183.141C172.951 190.199 155.106 162.72 170.902 144.594L185.627 127.698C194.81 117.161 193.976 101.239 183.742 91.7194L167.331 76.4546Z" stroke="#56776F" stroke-width="2"/>
<path opacity="0.310345" d="M171.212 72.2019C154.489 54.9279 170.871 26.5523 194.193 32.3981L214.187 37.41C227.744 40.8083 241.552 32.8363 245.388 19.3962L251.045 -0.425606C257.643 -23.5454 290.408 -23.5454 297.006 -0.425616L302.663 19.3962C306.499 32.8362 320.307 40.8083 333.864 37.41L353.859 32.3981C377.18 26.5523 393.563 54.9279 376.839 72.2019L362.502 87.0118C352.78 97.0535 352.78 112.998 362.502 123.039L376.839 137.849C393.563 155.123 377.18 183.499 353.859 177.653L333.864 172.641C320.307 169.243 306.499 177.215 302.663 190.655L297.006 210.477C290.408 233.597 257.643 233.597 251.045 210.477L245.388 190.655C241.552 177.215 227.744 169.243 214.187 172.641L194.193 177.653C170.871 183.499 154.489 155.123 171.212 137.849L185.55 123.039C195.271 112.998 195.271 97.0535 185.55 87.0118L171.212 72.2019Z" stroke="#56776F" stroke-width="2"/>
<path opacity="0.344828" d="M175.239 68.2743C159.443 50.1488 177.288 22.6696 200.271 29.7279L218.256 35.2511C231.617 39.3543 245.823 32.1158 250.357 18.8949L256.46 1.09844C264.259 -21.6443 296.979 -19.9295 302.358 3.50391L306.568 21.8408C309.694 35.4632 323.066 44.1469 336.783 41.4628L355.246 37.8498C378.842 33.2326 393.717 62.4266 376.112 78.8017L362.337 91.6154C352.103 101.135 351.269 117.057 360.451 127.594L372.812 141.777C388.608 159.903 370.763 187.382 347.78 180.324L329.795 174.8C316.434 170.697 302.228 177.936 297.694 191.157L291.591 208.953C283.792 231.696 251.072 229.981 245.693 206.548L241.484 188.211C238.357 174.588 224.985 165.905 211.268 168.589L192.805 172.202C169.209 176.819 154.334 147.625 171.939 131.25L185.714 118.436C195.948 108.917 196.783 92.9946 187.6 82.4578L175.239 68.2743Z" stroke="#56776F" stroke-width="2"/>
<path opacity="0.37931" d="M179.39 64.6749C164.564 45.7474 183.823 19.2398 206.405 27.4913L222.386 33.3306C235.514 38.1274 250.08 31.6424 255.299 18.6769L261.653 2.89349C270.631 -19.4099 303.217 -15.9851 307.362 7.69775L310.296 24.4573C312.706 38.2246 325.605 47.5963 339.443 45.6338L356.289 43.2447C380.093 39.8687 393.42 69.8012 374.983 85.2325L361.935 96.1527C351.217 105.123 349.551 120.98 358.169 131.983L368.661 145.377C383.487 164.305 364.228 190.812 341.646 182.561L325.665 176.721C312.537 171.925 297.972 178.41 292.752 191.375L286.398 207.159C277.42 229.462 244.834 226.037 240.689 202.354L237.755 185.595C235.345 171.827 222.446 162.456 208.608 164.418L191.763 166.807C167.958 170.183 154.631 140.251 173.068 124.82L186.116 113.899C196.834 104.929 198.5 89.0721 189.882 78.0692L179.39 64.6749Z" stroke="#56776F" stroke-width="2"/>
<path opacity="0.413793" d="M183.641 61.4046C169.826 41.7272 190.446 16.2638 212.565 25.6859L226.563 31.6484C239.422 37.1256 254.307 31.4118 260.198 18.7372L266.611 4.93985C276.744 -16.8631 309.106 -11.7375 312.006 12.1298L313.841 27.2335C315.527 41.1081 327.918 51.1421 341.84 49.9064L356.995 48.5613C380.944 46.4358 392.686 77.0248 373.466 91.47L361.304 100.611C350.131 109.009 347.637 124.756 355.668 136.195L364.41 148.648C378.226 168.325 357.606 193.788 335.486 184.366L321.488 178.404C308.629 172.927 293.744 178.64 287.853 191.315L281.441 205.112C271.307 226.915 238.945 221.79 236.045 197.922L234.21 182.819C232.524 168.944 220.133 158.91 206.211 160.146L191.056 161.491C167.107 163.616 155.365 133.027 174.585 118.582L186.747 109.441C197.92 101.044 200.414 85.2958 192.383 73.8569L183.641 61.4046Z" stroke="#56776F" stroke-width="2"/>
<path opacity="0.448276" d="M187.969 58.4639C175.203 38.0905 197.127 13.7412 218.724 24.308L230.774 30.2041C243.328 36.3468 258.492 31.4198 265.038 19.0709L271.321 7.21791C282.582 -14.0248 314.631 -7.21252 316.278 16.7738L317.197 30.1577C318.155 44.1015 330.004 54.7702 343.971 54.2649L357.378 53.7799C381.405 52.9106 391.53 84.0722 371.581 97.4917L360.449 104.98C348.852 112.781 345.537 128.376 352.959 140.22L360.082 151.588C372.848 171.961 350.924 196.311 329.328 185.744L317.278 179.848C304.723 173.705 289.559 178.632 283.013 190.981L276.73 202.834C265.469 224.077 233.42 217.264 231.773 193.278L230.854 179.894C229.897 165.95 218.048 155.282 204.08 155.787L190.674 156.272C166.647 157.141 156.522 125.98 176.471 112.56L187.602 105.072C199.199 97.2711 202.514 81.6755 195.093 69.8319L187.969 58.4639Z" stroke="#56776F" stroke-width="2"/>
<path opacity="0.482759" d="M192.352 55.8522C180.67 34.8385 203.838 11.67 224.852 23.3526L235.004 28.9968C247.22 35.7882 262.621 31.6616 269.804 19.6722L275.775 9.70795C288.132 -10.9163 319.78 -2.43606 320.17 21.6036L320.358 33.218C320.584 47.1928 331.859 58.467 345.833 58.6934L357.448 58.8815C381.487 59.2709 389.968 90.9197 369.343 103.277L359.379 109.247C347.39 116.43 343.263 131.831 350.055 144.047L355.699 154.199C367.381 175.213 344.213 198.382 323.199 186.699L313.047 181.055C300.831 174.263 285.43 178.39 278.247 190.379L272.277 200.344C259.92 220.968 228.271 212.488 227.881 188.448L227.693 176.834C227.467 162.859 216.193 151.585 202.218 151.358L190.603 151.17C166.564 150.781 158.084 119.132 178.708 106.775L188.672 100.805C200.661 93.6212 204.788 78.2203 197.997 66.0046L192.352 55.8522Z" stroke="#56776F" stroke-width="2"/>
<path opacity="0.517241" d="M196.768 53.567C186.201 31.9707 210.551 10.0465 230.924 22.8128L239.242 28.0252C251.086 35.4466 266.682 32.1316 274.483 20.5346L279.962 12.3896C293.381 -7.55969 324.543 2.56529 323.674 26.5924L323.319 36.4024C322.813 50.3699 333.482 62.2187 347.426 63.1762L357.219 63.8486C381.206 65.4956 388.018 97.5449 366.775 108.806L358.102 113.403C345.753 119.949 340.826 135.113 346.969 147.668L351.283 156.485C361.85 178.081 337.501 200.006 317.127 187.239L308.809 182.027C296.965 174.606 281.37 177.92 273.569 189.517L268.09 197.663C254.67 217.612 223.509 207.487 224.378 183.46L224.733 173.65C225.238 159.682 214.569 147.833 200.626 146.876L190.832 146.203C166.846 144.556 160.034 112.507 181.276 101.246L189.949 96.6488C202.298 90.1027 207.225 74.939 201.083 62.3845L196.768 53.567Z" stroke="#56776F" stroke-width="2"/>
<path opacity="0.551724" d="M201.194 51.6033C191.772 29.4835 217.236 8.86372 236.913 22.6789L243.475 27.2854C254.913 35.3165 270.661 32.8223 279.059 21.6495L283.875 15.2408C298.32 -3.97884 328.909 7.7632 326.784 31.7119L326.075 39.6975C324.839 53.6194 334.873 66.0102 348.748 67.6962L356.706 68.6632C380.574 71.5633 385.699 103.925 363.896 114.059L356.626 117.438C343.952 123.329 338.238 138.214 343.715 151.072L346.857 158.448C356.279 180.568 330.816 201.188 311.138 187.372L304.577 182.766C293.138 174.735 277.39 177.229 268.993 188.402L264.176 194.811C249.731 214.03 219.142 202.288 221.268 178.339L221.976 170.354C223.212 156.432 213.178 144.041 199.303 142.355L191.345 141.388C167.478 138.488 162.352 106.126 184.155 95.9926L191.425 92.6136C204.1 86.7228 209.813 71.8377 204.336 58.979L201.194 51.6033Z" stroke="#56776F" stroke-width="2"/>
<path opacity="0.586207" d="M205.61 49.957C197.359 27.3744 223.866 8.11552 242.794 22.9416L247.688 26.7756C258.691 35.3943 274.548 33.7276 283.518 23.0097L287.509 18.2418C302.94 -0.195503 332.873 13.1313 329.497 36.936L328.624 43.0918C326.661 56.93 336.033 69.829 349.8 72.2388L355.925 73.3107C379.607 77.456 383.032 110.042 360.729 119.02L354.961 121.342C341.996 126.562 335.511 141.127 340.307 154.255L342.441 160.095C350.693 182.677 324.185 201.936 305.258 187.11L300.363 183.276C289.36 174.658 273.503 176.324 264.533 187.042L260.542 191.81C245.111 210.247 215.179 196.921 218.555 173.116L219.428 166.96C221.39 153.122 212.018 140.223 198.251 137.813L192.127 136.741C168.444 132.596 165.019 100.01 187.322 91.0315L193.09 88.7097C206.056 83.4902 212.541 68.9245 207.744 55.7968L205.61 49.957Z" stroke="#56776F" stroke-width="2"/>
<path opacity="0.62069" d="M209.994 48.6203C202.936 25.6369 230.415 7.79162 248.541 23.5879L251.871 26.4906C262.408 35.6733 278.33 34.8389 287.849 24.605L290.858 21.3702C307.234 3.76575 336.428 18.6409 331.81 42.2362L330.962 46.5719C328.278 60.2884 336.962 73.6602 350.584 76.7872L354.89 77.7756C378.323 83.1547 380.038 115.875 357.295 123.674L353.116 125.107C339.895 129.641 332.657 143.847 336.76 157.208L338.057 161.431C345.115 184.415 317.636 202.26 299.511 186.464L296.18 183.561C285.643 174.378 269.721 175.213 260.202 185.447L257.193 188.681C240.818 206.286 211.624 191.411 216.241 167.815L217.089 163.48C219.773 149.763 211.09 136.391 197.467 133.264L193.161 132.276C169.728 126.897 168.013 94.1766 190.756 86.3775L194.935 84.9444C208.156 80.4107 215.394 66.2044 211.291 52.8436L209.994 48.6203Z" stroke="#56776F" stroke-width="2"/>
<path opacity="0.655172" d="M214.327 47.5857C208.481 24.2643 236.856 7.88174 254.13 24.605L256.012 26.4264C266.053 36.148 281.998 36.148 292.039 26.4264L293.921 24.605C311.195 7.88173 339.57 24.2644 333.724 47.5857L333.088 50.1257C329.689 63.6829 337.661 77.4908 351.102 81.3265L353.62 82.045C376.739 88.6431 376.739 121.408 353.619 128.006L351.102 128.725C337.661 132.561 329.689 146.369 333.088 159.926L333.724 162.466C339.57 185.787 311.195 202.17 293.921 185.446L292.039 183.625C281.998 173.904 266.054 173.904 256.012 183.625L254.13 185.447C236.856 202.17 208.481 185.787 214.327 162.466L214.963 159.926C218.362 146.369 210.39 132.561 196.95 128.725L194.432 128.006C171.312 121.408 171.312 88.6431 194.432 82.0451L196.95 81.3265C210.39 77.4908 218.362 63.6829 214.963 50.1256L214.327 47.5857Z" stroke="#56776F" stroke-width="2"/>
<path opacity="0.689655" d="M218.712 47.469C214.095 23.8736 243.603 8.83862 259.978 26.443C269.497 36.6769 285.674 37.5246 296.21 28.3419C314.336 12.5456 342.111 30.5827 335.052 53.5661C330.949 66.9269 338.303 81.3602 351.524 85.8939C374.267 93.693 372.534 126.765 349.1 132.144C335.478 135.271 326.655 148.857 329.339 162.573C333.957 186.168 304.449 201.203 288.074 183.599C278.554 173.365 262.378 172.517 251.841 181.7C233.715 197.496 205.941 179.459 212.999 156.476C217.102 143.115 209.748 128.682 196.527 124.148C173.784 116.349 175.518 83.277 198.951 77.8979C212.574 74.771 221.396 61.1855 218.712 47.469Z" stroke="#56776F" stroke-width="2"/>
<path opacity="0.724138" d="M222.654 45.6191C219.308 22.0328 248.966 8.82825 264.256 27.0964C273.151 37.7237 288.873 39.3762 299.783 30.8304C318.537 16.1404 344.801 35.2226 336.626 57.598C331.869 70.6146 338.3 85.057 351.155 90.2322C373.254 99.1285 369.861 131.415 346.395 135.523C332.744 137.912 323.452 150.702 325.398 164.423C328.743 188.009 299.085 201.214 283.795 182.945C274.901 172.318 259.178 170.666 248.268 179.211C229.514 193.901 203.25 174.819 211.426 152.444C216.182 139.427 209.752 124.985 196.896 119.81C174.797 110.913 178.191 78.6265 201.656 74.5193C215.307 72.13 224.599 59.3401 222.654 45.6191Z" stroke="#56776F" stroke-width="2"/>
<path opacity="0.758621" d="M226.635 44.0217C224.564 20.6959 254.358 9.25935 268.427 27.9791C276.623 38.8837 291.993 41.318 303.157 33.4798C322.323 20.024 347.124 40.1074 337.947 61.6519C332.601 74.2019 338.178 88.7297 350.548 94.4792C371.784 104.349 366.792 135.869 343.545 138.694C330.004 140.339 320.21 152.433 321.416 166.021C323.487 189.346 293.693 200.783 279.624 182.063C271.428 171.159 256.058 168.724 244.894 176.563C225.728 190.018 200.927 169.935 210.104 148.391C215.45 135.84 209.873 121.313 197.503 115.563C176.267 105.693 181.259 74.1731 204.506 71.3484C218.048 69.703 227.841 57.6095 226.635 44.0217Z" stroke="#56776F" stroke-width="2"/>
<path opacity="0.793103" d="M230.64 42.675C229.808 19.6774 259.635 9.98618 272.479 29.0807C279.972 40.2191 294.951 43.403 306.326 36.2751C325.827 24.0557 349.133 45.0406 339.019 65.7115C333.119 77.7696 337.851 92.3337 349.712 98.621C370.044 109.399 363.524 140.075 340.565 141.652C327.173 142.571 316.926 153.952 317.411 167.367C318.243 190.365 288.417 200.056 275.572 180.961C268.08 169.823 253.101 166.639 241.725 173.767C222.225 185.986 198.919 165.001 209.033 144.33C214.933 132.272 210.2 117.708 198.34 111.421C178.007 100.643 184.528 69.9666 207.486 68.3901C220.879 67.4705 231.126 56.0902 230.64 42.675Z" stroke="#56776F" stroke-width="2"/>
<path opacity="0.827586" d="M234.655 41.5779C235.021 18.973 264.781 10.9988 276.4 30.3922C283.188 41.7212 297.741 45.6206 309.284 39.2032C329.043 28.2179 350.829 50.0036 339.844 69.7631C333.426 81.3061 337.326 95.8586 348.655 102.646C368.048 114.266 360.074 144.026 337.469 144.392C324.264 144.606 313.611 155.259 313.397 168.464C313.03 191.069 283.271 199.043 271.651 179.65C264.863 168.321 250.311 164.422 238.768 170.839C219.008 181.824 197.222 160.039 208.208 140.279C214.625 128.736 210.726 114.184 199.397 107.396C180.003 95.7762 187.978 66.0163 210.582 65.6502C223.788 65.4362 234.441 54.783 234.655 41.5779Z" stroke="#56776F" stroke-width="2"/>
<path opacity="0.862069" d="M238.663 40.7269C240.184 18.576 269.781 12.285 280.18 31.9022C286.264 43.3791 300.357 47.9582 312.025 42.2492C331.969 32.491 352.215 54.9771 340.426 73.7915C333.528 84.7988 336.609 99.2932 347.387 106.543C365.81 118.936 356.46 147.713 334.271 146.91C321.29 146.441 310.278 156.356 309.388 169.315C307.867 191.466 278.27 197.757 267.871 178.14C261.787 166.663 247.694 162.084 236.026 167.793C216.083 177.551 195.836 155.065 207.626 136.251C214.523 125.243 211.442 110.749 200.664 103.499C182.241 91.1061 191.591 62.3291 213.78 63.1318C226.761 63.6014 237.773 53.6861 238.663 40.7269Z" stroke="#56776F" stroke-width="2"/>
<path opacity="0.896552" d="M242.651 40.1185C245.281 18.4794 274.621 13.8323 283.809 33.5998C289.192 45.1824 302.795 50.404 314.546 45.3986C334.6 36.8562 353.295 59.9423 340.77 77.7827C333.431 88.2362 335.71 102.627 345.92 110.301C363.345 123.398 352.7 151.131 330.987 149.204C318.264 148.075 306.941 157.244 305.4 169.924C302.771 191.563 273.43 196.21 264.243 176.442C258.859 164.86 245.257 159.638 233.506 164.643C213.451 173.186 194.756 150.1 207.282 132.259C214.621 121.806 212.341 107.415 202.131 99.7409C184.706 86.6443 195.352 58.911 217.065 60.8381C229.787 61.9673 241.11 52.7978 242.651 40.1185Z" stroke="#56776F" stroke-width="2"/>
<path opacity="0.931035" d="M246.604 39.7484C250.293 18.6753 279.288 15.6278 287.277 35.4735C291.966 47.1206 305.05 52.9462 316.843 48.6372C336.937 41.295 354.074 64.8816 340.881 81.7233C333.139 91.6074 334.636 105.852 344.264 113.91C360.67 127.641 348.812 154.275 327.63 151.271C315.199 149.508 303.612 157.927 301.447 170.294C297.759 191.367 268.764 194.415 260.774 174.569C256.086 162.922 243.001 157.096 231.208 161.405C211.114 168.748 193.978 145.161 207.17 128.319C214.912 118.435 213.415 104.191 203.787 96.1325C187.381 82.4016 199.24 55.7675 220.421 58.7715C232.852 60.5345 244.44 52.1158 246.604 39.7484Z" stroke="#56776F" stroke-width="2"/>
<path opacity="0.965517" d="M250.509 39.6107C255.204 19.1541 283.768 17.6571 290.576 37.5108C294.579 49.1819 307.12 55.5719 318.914 51.9497C338.978 45.788 354.556 69.7765 340.767 85.5995C332.66 94.9011 333.397 108.957 342.431 117.36C357.799 131.655 344.814 157.141 324.216 153.11C312.107 150.74 300.303 158.406 297.543 170.432C292.847 190.888 264.283 192.385 257.475 172.532C253.472 160.861 240.931 154.471 229.137 158.093C209.073 164.255 193.495 140.266 207.284 124.443C215.391 115.141 214.654 101.086 205.62 92.6823C190.252 78.3873 203.237 52.9019 223.835 56.9326C235.944 59.302 247.748 51.6362 250.509 39.6107Z" stroke="#56776F" stroke-width="2"/>
<path d="M254.351 39.6993C260 19.9058 288.051 19.9058 293.7 39.6993C297.027 51.3551 309.001 58.2688 320.759 55.3216C340.725 50.3169 354.751 74.61 340.433 89.3988C332.002 98.1074 332.002 111.935 340.433 120.643C354.751 135.432 340.725 159.725 320.759 154.721C309.001 151.773 297.027 158.687 293.7 170.343C288.051 190.136 260 190.136 254.351 170.343C251.025 158.687 239.05 151.773 227.293 154.721C207.326 159.725 193.301 135.432 207.618 120.643C216.049 111.935 216.049 98.1074 207.618 89.3988C193.301 74.61 207.326 50.3169 227.293 55.3216C239.05 58.2688 251.025 51.3551 254.351 39.6993Z" stroke="#56776F" stroke-width="2"/>
</g>
<rect x="1.16669" y="0.5" width="316.333" height="447" rx="15.5" stroke="#0E211C"/>
<defs>
<linearGradient id="paint0_linear_21_15028" x1="159.333" y1="-10.5" x2="159.333" y2="448" gradientUnits="userSpaceOnUse">
<stop stop-color="#224E44"/>
<stop offset="1" stop-color="#16141F" stop-opacity="0"/>
</linearGradient>
<clipPath id="clip0_21_15028">
<rect x="0.666687" width="317.333" height="448" rx="16" fill="white"/>
</clipPath>
</defs>
</svg>
