<svg width="318" height="448" viewBox="0 0 318 448" fill="none" xmlns="http://www.w3.org/2000/svg">
<g clip-path="url(#clip0_234_133)">
<rect x="0.333984" width="317.333" height="448" rx="16" fill="url(#paint0_linear_234_133)"/>
<path opacity="0.0344828" d="M-11.7543 23.9985C-10.7893 22.8484 -9.29623 22.0845 -7.2029 21.7705C-5.10128 21.4553 -2.45822 21.6056 0.687182 22.2343C6.97697 23.4915 15.0677 26.6181 24.4247 31.3783C43.1241 40.8911 66.6805 56.8241 90.642 76.9301C114.603 97.0362 134.385 117.468 147 134.231C153.313 142.62 157.797 150.045 160.127 156.02C161.293 159.009 161.9 161.586 161.954 163.71C162.008 165.826 161.515 167.429 160.55 168.579C159.585 169.729 158.092 170.493 155.999 170.807C153.897 171.122 151.254 170.972 148.109 170.344C141.819 169.086 133.728 165.96 124.371 161.2C105.672 151.687 82.1155 135.754 58.1541 115.648C34.1926 95.5416 14.4112 75.1099 1.79573 58.3464C-4.51695 49.9582 -9.00102 42.5333 -11.3313 36.5574C-12.4966 33.5689 -13.1036 30.9921 -13.1581 28.8677C-13.2124 26.7516 -12.7194 25.1486 -11.7543 23.9985Z" stroke="#00FFC2" stroke-width="2"/>
<path opacity="0.0689655" d="M-5.1259 15.8592C-4.06427 14.7976 -2.51034 14.1668 -0.397617 14.0364C1.72348 13.9056 4.34339 14.2856 7.42203 15.1861C13.5783 16.9867 21.3657 20.8065 30.2723 26.3641C48.0715 37.4706 70.1495 55.396 92.2675 77.5139C114.385 99.6318 132.311 121.71 143.417 139.509C148.975 148.416 152.795 156.203 154.595 162.359C155.496 165.438 155.876 168.058 155.745 170.179C155.615 172.292 154.984 173.846 153.922 174.907C152.86 175.969 151.307 176.6 149.194 176.73C147.073 176.861 144.453 176.481 141.374 175.58C135.218 173.78 127.43 169.96 118.524 164.402C100.725 153.296 78.6467 135.371 56.5287 113.253C34.4108 91.1347 16.4854 69.0566 5.37898 51.2574C-0.178594 42.3509 -3.99848 34.5635 -5.79906 28.4072C-6.69949 25.3285 -7.07955 22.7086 -6.9487 20.5875C-6.81837 18.4748 -6.18753 16.9209 -5.1259 15.8592Z" stroke="#00FFC2" stroke-width="2"/>
<path opacity="0.103448" d="M2.10629 8.325C3.25641 7.35994 4.85941 6.86694 6.97545 6.92124C9.09989 6.97575 11.6767 7.5827 14.6651 8.74803C20.6411 11.0783 28.0659 15.5624 36.4542 21.8751C53.2177 34.4905 73.6494 54.272 93.7555 78.2334C113.862 102.195 129.794 125.751 139.307 144.451C144.068 153.808 147.194 161.898 148.451 168.188C149.08 171.334 149.23 173.977 148.915 176.078C148.601 178.172 147.837 179.665 146.687 180.63C145.537 181.595 143.934 182.088 141.818 182.033C139.694 181.979 137.117 181.372 134.128 180.207C128.152 177.876 120.727 173.392 112.339 167.08C95.5757 154.464 75.144 134.683 55.0379 110.721C34.9319 86.7598 18.9989 63.2035 9.48604 44.5041C4.72587 35.147 1.59925 27.0563 0.34207 20.7665C-0.286613 17.6211 -0.436886 14.978 -0.121665 12.8764C0.192307 10.7831 0.956175 9.29006 2.10629 8.325Z" stroke="#00FFC2" stroke-width="2"/>
<path opacity="0.137931" d="M9.89017 1.44628C11.12 0.585127 12.7599 0.233713 14.8631 0.472232C16.9747 0.711692 19.4889 1.54092 22.3644 2.96227C28.1145 5.80453 35.1203 10.9187 42.9264 17.9384C58.5266 31.9669 77.1565 53.4538 95.0977 79.0764C113.039 104.699 126.858 129.554 134.705 149.012C138.632 158.748 141.041 167.081 141.745 173.456C142.097 176.644 142.017 179.29 141.52 181.356C141.024 183.414 140.133 184.835 138.903 185.696C137.674 186.558 136.034 186.909 133.93 186.67C131.819 186.431 129.305 185.602 126.429 184.18C120.679 181.338 113.673 176.224 105.867 169.204C90.2671 155.176 71.6371 133.689 53.696 108.066C35.7548 82.4436 21.9355 57.5882 14.0886 38.1308C10.1621 28.3945 7.75251 20.0621 7.04831 13.6867C6.69616 10.4985 6.77682 7.85236 7.27401 5.7862C7.76923 3.72821 8.66032 2.30743 9.89017 1.44628Z" stroke="#00FFC2" stroke-width="2"/>
<path opacity="0.172414" d="M18.1645 -4.73104C19.4647 -5.48173 21.129 -5.68888 23.2034 -5.26796C25.2861 -4.84537 27.7184 -3.80018 30.4591 -2.13362C35.9396 1.19897 42.473 6.90423 49.6376 14.5776C63.9557 29.9124 80.6421 52.9412 96.2818 80.03C111.922 107.119 123.522 133.084 129.643 153.151C132.706 163.193 134.38 171.703 134.526 178.116C134.599 181.323 134.288 183.952 133.613 185.967C132.94 187.974 131.929 189.311 130.628 190.062C129.328 190.813 127.664 191.02 125.589 190.599C123.507 190.176 121.074 189.131 118.334 187.465C112.853 184.132 106.32 178.427 99.1552 170.753C84.8371 155.419 68.1508 132.39 52.511 105.301C36.8713 78.2123 25.2709 52.2471 19.1497 32.1799C16.0867 22.1384 14.4125 13.6276 14.2666 7.2151C14.1937 4.00831 14.5046 1.37931 15.18 -0.635645C15.8527 -2.64265 16.8642 -3.98036 18.1645 -4.73104Z" stroke="#00FFC2" stroke-width="2"/>
<path opacity="0.206897" d="M26.8675 -10.1672C28.2282 -10.8017 29.9042 -10.863 31.9341 -10.2629C33.972 -9.66043 36.304 -8.40723 38.889 -6.50814C44.0581 -2.71057 50.0695 3.5424 56.5381 11.811C69.4652 28.3353 84.0809 52.7309 97.3002 81.0797C110.519 109.428 119.813 136.306 124.162 156.83C126.338 167.101 127.264 175.725 126.85 182.126C126.644 185.327 126.105 187.918 125.256 189.867C124.411 191.808 123.287 193.052 121.926 193.687C120.565 194.321 118.889 194.382 116.86 193.782C114.822 193.18 112.49 191.927 109.905 190.028C104.736 186.23 98.7242 179.977 92.2556 171.708C79.3285 155.184 64.7127 130.789 51.4935 102.44C38.2742 74.0909 28.981 47.2134 24.632 26.6891C22.4558 16.4189 21.5297 7.79459 21.9433 1.39374C22.1502 -1.80721 22.6891 -4.3991 23.5375 -6.34752C24.3826 -8.28826 25.5068 -9.53272 26.8675 -10.1672Z" stroke="#00FFC2" stroke-width="2"/>
<path opacity="0.241379" d="M35.9325 -14.8281C37.3433 -15.3416 39.0182 -15.2566 40.9881 -14.4819C42.9658 -13.704 45.1796 -12.2524 47.5892 -10.1352C52.4078 -5.90156 57.8512 0.851539 63.5746 9.65248C75.0123 27.2406 87.4462 52.8171 98.1444 82.2102C108.843 111.603 115.758 139.188 118.302 160.014C119.574 170.434 119.745 179.107 118.775 185.447C118.29 188.618 117.528 191.153 116.513 193.02C115.502 194.88 114.273 196.021 112.862 196.535C111.451 197.048 109.777 196.963 107.807 196.189C105.829 195.411 103.615 193.959 101.206 191.842C96.387 187.608 90.9435 180.855 85.2202 172.054C73.7825 154.466 61.3485 128.89 50.6503 99.4966C39.9521 70.1035 33.0368 42.5184 30.4932 21.6931C29.2204 11.2723 29.0495 2.60015 30.0194 -3.7403C30.5044 -6.91104 31.2672 -9.44609 32.2822 -11.3132C33.2932 -13.1729 34.5216 -14.3146 35.9325 -14.8281Z" stroke="#00FFC2" stroke-width="2"/>
<path opacity="0.275862" d="M45.2902 -18.6838C46.7404 -19.0723 48.4015 -18.8417 50.2964 -17.8982C52.1987 -16.951 54.2776 -15.3119 56.4936 -12.9928C60.9248 -8.35527 65.759 -1.15344 70.6935 8.11283C80.5548 26.6309 90.7122 53.1938 98.808 83.4074C106.904 113.621 111.388 141.704 112.107 162.672C112.467 173.164 111.882 181.818 110.363 188.05C109.603 191.166 108.622 193.625 107.449 195.396C106.279 197.161 104.956 198.191 103.506 198.58C102.056 198.968 100.394 198.738 98.4996 197.794C96.5972 196.847 94.5183 195.208 92.3024 192.889C87.8712 188.251 83.037 181.05 78.1025 171.783C68.2412 153.265 58.0837 126.702 49.988 96.4887C41.8923 66.275 37.4074 38.1922 36.6886 17.2244C36.3288 6.73233 36.9144 -1.92172 38.4332 -8.15352C39.1928 -11.2699 40.1736 -13.7288 41.3474 -15.5003C42.5167 -17.2649 43.84 -18.2952 45.2902 -18.6838Z" stroke="#00FFC2" stroke-width="2"/>
<path opacity="0.310345" d="M54.8685 -21.713C56.3471 -21.9737 57.9818 -21.5992 59.7872 -20.4941C61.5998 -19.3847 63.5279 -17.5707 65.5333 -15.0673C69.5435 -10.0612 73.7316 -2.46545 77.8397 7.19563C86.0495 26.5027 93.8532 53.8498 99.2848 84.654C104.716 115.458 106.737 143.825 105.625 164.776C105.069 175.259 103.732 183.829 101.675 189.905C100.647 192.943 99.4558 195.308 98.132 196.97C96.8134 198.626 95.4054 199.537 93.9268 199.798C92.4483 200.058 90.8135 199.684 89.0081 198.579C87.1956 197.469 85.2675 195.655 83.2621 193.152C79.2519 188.146 75.0638 180.55 70.9557 170.889C62.7459 151.582 54.9421 124.235 49.5105 93.4306C44.0789 62.6263 42.0587 34.2594 43.17 13.3088C43.7261 2.82531 45.0638 -5.74477 47.1199 -11.8205C48.1482 -14.8588 49.3395 -17.2229 50.6633 -18.8854C51.9819 -20.5413 53.39 -21.4523 54.8685 -21.713Z" stroke="#00FFC2" stroke-width="2"/>
<path opacity="0.344828" d="M64.5954 -23.8996C66.0911 -24.0305 67.687 -23.5149 69.3892 -22.2567C71.0982 -20.9935 72.8608 -19.0183 74.6404 -16.3497C78.199 -11.0131 81.7092 -3.08128 84.9596 6.90109C91.4555 26.8502 96.8461 54.7734 99.5722 85.9338C102.298 117.094 101.839 145.529 98.9055 166.303C97.4378 176.698 95.3584 185.119 92.7805 190.993C91.4914 193.93 90.0985 196.181 88.6348 197.722C87.1769 199.257 85.6949 200.041 84.1992 200.172C82.7035 200.303 81.1077 199.788 79.4054 198.529C77.6965 197.266 75.9338 195.291 74.1542 192.622C70.5956 187.286 67.0855 179.354 63.835 169.372C57.3391 149.422 51.9486 121.499 49.2224 90.3388C46.4962 59.1784 46.9561 30.7434 49.8891 9.96936C51.3568 -0.425791 53.4363 -8.84668 56.0141 -14.7201C57.3033 -17.6572 58.6962 -19.9085 60.1598 -21.4492C61.6177 -22.9839 63.0998 -23.7688 64.5954 -23.8996Z" stroke="#00FFC2" stroke-width="2"/>
<path opacity="0.37931" d="M74.398 -25.2338C75.8994 -25.2338 77.4443 -24.5811 79.0303 -23.1794C80.6227 -21.772 82.2065 -19.6507 83.7468 -16.8371C86.8267 -11.2108 89.6322 -3.00314 92.0003 7.22453C96.7327 27.6639 99.6691 55.9506 99.6691 87.2301C99.6691 118.51 96.7327 146.796 92.0003 167.236C89.6322 177.463 86.8267 185.671 83.7468 191.297C82.2065 194.111 80.6227 196.232 79.0303 197.639C77.4443 199.041 75.8994 199.694 74.398 199.694C72.8967 199.694 71.3518 199.041 69.7657 197.639C68.1734 196.232 66.5895 194.111 65.0493 191.297C61.9694 185.671 59.1639 177.463 56.7958 167.236C52.0633 146.796 49.127 118.51 49.127 87.2301C49.127 55.9506 52.0633 27.6639 56.7958 7.22453C59.1639 -3.00314 61.9694 -11.2108 65.0493 -16.8371C66.5895 -19.6507 68.1734 -21.772 69.7657 -23.1794C71.3518 -24.5811 72.8967 -25.2338 74.398 -25.2338Z" stroke="#00FFC2" stroke-width="2"/>
<path opacity="0.413793" d="M84.1999 -25.712C85.6956 -25.5812 87.1777 -24.7963 88.6355 -23.2616C90.0992 -21.7209 91.4921 -19.4696 92.7812 -16.5324C95.3591 -10.6591 97.4386 -2.23816 98.9062 8.15699C101.839 28.931 102.299 57.366 99.573 88.5265C96.8468 119.687 91.4562 147.61 84.9603 167.559C81.7099 177.542 78.1997 185.473 74.6411 190.81C72.8615 193.479 71.0989 195.454 69.3899 196.717C67.6877 197.975 66.0918 198.491 64.5962 198.36C63.1005 198.229 61.6184 197.444 60.1605 195.909C58.6969 194.369 57.304 192.117 56.0148 189.18C53.437 183.307 51.3575 174.886 49.8898 164.491C46.9568 143.717 46.4969 115.282 49.2231 84.1214C51.9493 52.961 57.3399 25.0378 63.8357 5.08871C67.0862 -4.89365 70.5963 -12.8255 74.1549 -18.162C75.9345 -20.8307 77.6972 -22.8059 79.4062 -24.0691C81.1084 -25.3273 82.7043 -25.8429 84.1999 -25.712Z" stroke="#00FFC2" stroke-width="2"/>
<path opacity="0.448276" d="M93.9262 -25.3374C95.4048 -25.0766 96.8128 -24.1656 98.1314 -22.5097C99.4552 -20.8472 100.647 -18.4831 101.675 -15.4448C103.731 -9.36909 105.069 -0.799003 105.625 9.68451C106.736 30.6351 104.716 59.002 99.2842 89.8063C93.8526 120.611 86.0489 147.958 77.839 167.265C73.7309 176.926 69.5428 184.521 65.5327 189.528C63.5272 192.031 61.5991 193.845 59.7866 194.954C57.9812 196.059 56.3464 196.434 54.8679 196.173C53.3893 195.913 51.9813 195.002 50.6627 193.346C49.3389 191.683 48.1475 189.319 47.1193 186.281C45.0631 180.205 43.7255 171.635 43.1694 161.151C42.0581 140.201 44.0783 111.834 49.5099 81.0297C54.9415 50.2254 62.7452 22.8784 70.955 3.57131C75.0632 -6.08977 79.2513 -13.6855 83.2614 -18.6916C85.2668 -21.195 87.1949 -23.009 89.0075 -24.1185C90.8129 -25.2235 92.4476 -25.5981 93.9262 -25.3374Z" stroke="#00FFC2" stroke-width="2"/>
<path opacity="0.482759" d="M103.505 -24.1193C104.955 -23.7307 106.278 -22.7004 107.447 -20.9359C108.621 -19.1644 109.602 -16.7054 110.362 -13.589C111.88 -7.35723 112.466 1.29683 112.106 11.7889C111.387 32.7567 106.903 60.8395 98.8068 91.0532C90.7111 121.267 80.5536 147.83 70.6923 166.348C65.7578 175.614 60.9237 182.816 56.4924 187.453C54.2765 189.772 52.1976 191.412 50.2952 192.359C48.4004 193.302 46.7392 193.533 45.289 193.144C43.8388 192.756 42.5155 191.725 41.3463 189.961C40.1724 188.189 39.1916 185.73 38.4321 182.614C36.9133 176.382 36.3277 167.728 36.6874 157.236C37.4063 136.268 41.8911 108.186 49.9868 77.9719C58.0826 47.7583 68.24 21.1954 78.1013 2.67732C83.0359 -6.58895 87.87 -13.7908 92.3012 -18.4283C94.5172 -20.7474 96.5961 -22.3865 98.4984 -23.3337C100.393 -24.2772 102.054 -24.5079 103.505 -24.1193Z" stroke="#00FFC2" stroke-width="2"/>
<path opacity="0.517241" d="M112.863 -22.075C114.274 -21.5615 115.502 -20.4198 116.513 -18.5601C117.528 -16.693 118.291 -14.158 118.776 -10.9872C119.746 -4.64678 119.575 4.02538 118.302 14.4462C115.759 35.2715 108.843 62.8566 98.145 92.2497C87.4468 121.643 75.0129 147.219 63.5752 164.807C57.8518 173.608 52.4084 180.361 47.5898 184.595C45.1802 186.712 42.9664 188.164 40.9887 188.942C39.0188 189.716 37.3439 189.801 35.9331 189.288C34.5222 188.774 33.2938 187.633 32.2828 185.773C31.2678 183.906 30.505 181.371 30.02 178.2C29.0501 171.86 29.221 163.188 30.4938 152.767C33.0374 131.941 39.9527 104.356 50.6509 74.9633C61.3491 45.5702 73.7831 19.9937 85.2208 2.40555C90.9441 -6.39539 96.3876 -13.1485 101.206 -17.3821C103.616 -19.4993 105.83 -20.951 107.807 -21.7288C109.777 -22.5035 111.452 -22.5885 112.863 -22.075Z" stroke="#00FFC2" stroke-width="2"/>
<path opacity="0.551724" d="M121.926 -19.2261C123.286 -18.5916 124.411 -17.3471 125.256 -15.4064C126.104 -13.458 126.643 -10.8661 126.85 -7.66514C127.263 -1.26429 126.337 7.35998 124.161 17.6302C119.812 38.1546 110.519 65.032 97.2998 93.3808C84.0805 121.73 69.4647 146.125 56.5376 162.649C50.069 170.918 44.0577 177.171 38.8885 180.969C36.3035 182.868 33.9716 184.121 31.9336 184.723C29.9038 185.324 28.2278 185.262 26.8671 184.628C25.5064 183.993 24.3821 182.749 23.537 180.808C22.6886 178.86 22.1497 176.268 21.9429 173.067C21.5293 166.666 22.4553 158.042 24.6315 147.771C28.9805 127.247 38.2737 100.37 51.493 72.0208C64.7123 43.672 79.328 19.2765 92.2551 2.75215C98.7237 -5.51648 104.735 -11.7695 109.904 -15.567C112.489 -17.4661 114.821 -18.7193 116.859 -19.3218C118.889 -19.9219 120.565 -19.8606 121.926 -19.2261Z" stroke="#00FFC2" stroke-width="2"/>
<path opacity="0.586207" d="M130.629 -15.6018C131.93 -14.8511 132.941 -13.5134 133.614 -11.5064C134.289 -9.49145 134.6 -6.86245 134.527 -3.65566C134.381 2.75688 132.707 11.2676 129.644 21.3091C123.523 41.3763 111.923 67.3415 96.2828 94.4303C80.6431 121.519 63.9568 144.548 49.6387 159.883C42.474 167.556 35.9406 173.261 30.4601 176.594C27.7194 178.261 25.2871 179.306 23.2044 179.728C21.13 180.149 19.4657 179.942 18.1655 179.191C16.8653 178.441 15.8537 177.103 15.181 175.096C14.5057 173.081 14.1947 170.452 14.2676 167.245C14.4135 160.833 16.0877 152.322 19.1507 142.28C25.2719 122.213 36.8723 96.2481 52.512 69.1593C68.1518 42.0704 84.8381 19.0416 99.1562 3.70686C106.321 -3.96653 112.854 -9.67179 118.335 -13.0044C121.075 -14.6709 123.508 -15.7161 125.59 -16.1387C127.665 -16.5596 129.329 -16.3525 130.629 -15.6018Z" stroke="#00FFC2" stroke-width="2"/>
<path opacity="0.62069" d="M138.904 -11.236C140.134 -10.3748 141.025 -8.95406 141.52 -6.89606C142.017 -4.82991 142.098 -2.18381 141.746 1.00442C141.041 7.37985 138.632 15.7123 134.705 25.4486C126.858 44.9059 113.039 69.7613 95.098 95.384C77.1568 121.007 58.5269 142.493 42.9267 156.522C35.1206 163.542 28.1147 168.656 22.3647 171.498C19.4891 172.919 16.975 173.749 14.8634 173.988C12.7602 174.227 11.1203 173.875 9.89046 173.014C8.66061 172.153 7.76952 170.732 7.2743 168.674C6.77711 166.608 6.69645 163.962 7.04861 160.774C7.75281 154.398 10.1624 146.066 14.0889 136.33C21.9358 116.872 35.7551 92.0168 53.6963 66.3942C71.6374 40.7715 90.2674 19.2846 105.867 5.25613C113.674 -1.76361 120.679 -6.87774 126.43 -9.71999C129.305 -11.1413 131.819 -11.9706 133.931 -12.21C136.034 -12.4486 137.674 -12.0971 138.904 -11.236Z" stroke="#00FFC2" stroke-width="2"/>
<path opacity="0.655172" d="M146.688 -6.16949C147.838 -5.20443 148.602 -3.71139 148.916 -1.61807C149.231 0.483561 149.081 3.12662 148.452 6.27202C147.195 12.5618 144.069 20.6525 139.309 30.0096C129.796 48.709 113.863 72.2653 93.7566 96.2268C73.6506 120.188 53.2188 139.97 36.4554 152.585C28.0671 158.898 20.6422 163.382 14.6663 165.712C11.6778 166.878 9.10104 167.484 6.97661 167.539C4.86056 167.593 3.25757 167.1 2.10745 166.135C0.957332 165.17 0.193464 163.677 -0.120509 161.584C-0.43573 159.482 -0.285458 156.839 0.34323 153.694C1.6004 147.404 4.72703 139.313 9.4872 129.956C19.0001 111.257 34.933 87.7004 55.0391 63.7389C75.1451 39.7775 95.5769 19.996 112.34 7.38057C120.729 1.06789 128.153 -3.41618 134.129 -5.74646C137.118 -6.91179 139.695 -7.51874 141.819 -7.57325C143.935 -7.62755 145.538 -7.13455 146.688 -6.16949Z" stroke="#00FFC2" stroke-width="2"/>
<path opacity="0.689655" d="M153.921 -0.446945C154.983 0.614684 155.614 2.16861 155.744 4.28134C155.875 6.40244 155.495 9.02234 154.595 12.101C152.794 18.2573 148.974 26.0447 143.417 34.9513C132.31 52.7504 114.385 74.8285 92.2668 96.9464C70.1488 119.064 48.0708 136.99 30.2716 148.096C21.3651 153.654 13.5776 157.474 7.42134 159.274C4.3427 160.175 1.7228 160.555 -0.398305 160.424C-2.51103 160.294 -4.06496 159.663 -5.12659 158.601C-6.18822 157.539 -6.81905 155.985 -6.94938 153.873C-7.08024 151.752 -6.70018 149.132 -5.79974 146.053C-3.99916 139.897 -0.179276 132.109 5.37829 123.203C16.4847 105.404 34.4101 83.3256 56.5281 61.2077C78.646 39.0898 100.724 21.1644 118.523 10.0579C127.43 4.50036 135.217 0.680477 141.373 -1.12011C144.452 -2.02054 147.072 -2.4006 149.193 -2.26974C151.306 -2.13941 152.86 -1.50858 153.921 -0.446945Z" stroke="#00FFC2" stroke-width="2"/>
<path opacity="0.724138" d="M160.549 5.88083C161.514 7.03095 162.007 8.63394 161.953 10.75C161.899 12.8744 161.292 15.4512 160.126 18.4397C157.796 24.4156 153.312 31.8405 146.999 40.2288C134.384 56.9922 114.602 77.424 90.6409 97.53C66.6794 117.636 43.123 133.569 24.4236 143.082C15.0666 147.842 6.97587 150.969 0.686082 152.226C-2.45933 152.855 -5.10238 153.005 -7.20401 152.69C-9.29733 152.376 -10.7904 151.612 -11.7554 150.462C-12.7205 149.312 -13.2135 147.709 -13.1592 145.592C-13.1047 143.468 -12.4977 140.891 -11.3324 137.903C-9.00212 131.927 -4.51805 124.502 1.79463 116.114C14.4101 99.3503 34.1915 78.9185 58.153 58.8125C82.1144 38.7064 105.671 22.7735 124.37 13.2606C133.727 8.50041 141.818 5.37378 148.108 4.11661C151.253 3.48792 153.896 3.33765 155.998 3.65287C158.091 3.96684 159.584 4.73071 160.549 5.88083Z" stroke="#00FFC2" stroke-width="2"/>
<path opacity="0.758621" d="M166.522 12.7586C167.384 13.9884 167.735 15.6283 167.497 17.7316C167.257 19.8432 166.428 22.3573 165.006 25.2328C162.164 30.9829 157.05 37.9887 150.03 45.7948C136.002 61.395 114.515 80.0249 88.8923 97.9661C63.2697 115.907 38.4143 129.727 18.957 137.573C9.22067 141.5 0.888228 143.91 -5.4872 144.614C-8.67543 144.966 -11.3215 144.885 -13.3877 144.388C-15.4457 143.893 -16.8665 143.002 -17.7276 141.772C-18.5888 140.542 -18.9402 138.902 -18.7017 136.799C-18.4622 134.687 -17.633 132.173 -16.2116 129.298C-13.3694 123.548 -8.25523 116.542 -1.23549 108.736C12.793 93.1355 34.2799 74.5055 59.9025 56.5644C85.5252 38.6232 110.381 24.804 129.838 16.957C139.574 13.0305 147.907 10.6209 154.282 9.91672C157.47 9.56457 160.116 9.64523 162.183 10.1424C164.241 10.6376 165.661 11.5287 166.522 12.7586Z" stroke="#00FFC2" stroke-width="2"/>
<path opacity="0.793103" d="M171.795 20.1274C172.545 21.4276 172.753 23.0918 172.332 25.1663C171.909 27.249 170.864 29.6813 169.197 32.422C165.865 37.9025 160.159 44.4359 152.486 51.6005C137.151 65.9186 114.123 82.605 87.0337 98.2447C59.9449 113.884 33.9797 125.485 13.9125 131.606C3.871 134.669 -4.63975 136.343 -11.0523 136.489C-14.2591 136.562 -16.8881 136.251 -18.903 135.576C-20.91 134.903 -22.2477 133.891 -22.9984 132.591C-23.7491 131.291 -23.9563 129.627 -23.5354 127.552C-23.1128 125.47 -22.0676 123.037 -20.401 120.297C-17.0684 114.816 -11.3632 108.283 -3.68977 101.118C11.645 86.8 34.6738 70.1136 61.7626 54.4739C88.8514 38.8342 114.817 27.2338 134.884 21.1126C144.925 18.0496 153.436 16.3754 159.849 16.2295C163.055 16.1566 165.684 16.4675 167.699 17.1429C169.706 17.8156 171.044 18.8271 171.795 20.1274Z" stroke="#00FFC2" stroke-width="2"/>
<path opacity="0.827586" d="M176.324 27.924C176.958 29.2848 177.02 30.9607 176.419 32.9906C175.817 35.0286 174.564 37.3605 172.665 39.9455C168.867 45.1147 162.614 51.126 154.345 57.5946C137.821 70.5217 113.426 85.1375 85.0768 98.3567C56.728 111.576 29.8506 120.869 9.32619 125.218C-0.944024 127.394 -9.5683 128.32 -15.9691 127.907C-19.1701 127.7 -21.762 127.161 -23.7104 126.313C-25.6512 125.468 -26.8956 124.343 -27.5301 122.983C-28.1646 121.622 -28.2259 119.946 -27.6258 117.916C-27.0233 115.878 -25.7701 113.546 -23.871 110.961C-20.0735 105.792 -13.8205 99.7807 -5.55186 93.3121C10.9725 80.385 35.368 65.7692 63.7168 52.55C92.0656 39.3307 118.943 30.0375 139.467 25.6885C149.738 23.5123 158.362 22.5863 164.763 22.9998C167.964 23.2067 170.556 23.7456 172.504 24.594C174.445 25.4391 175.689 26.5633 176.324 27.924Z" stroke="#00FFC2" stroke-width="2"/>
<path opacity="0.862069" d="M180.079 36.0826C180.592 37.4934 180.507 39.1684 179.733 41.1382C178.955 43.1159 177.503 45.3297 175.386 47.7394C171.152 52.5579 164.399 58.0014 155.598 63.7247C138.01 75.1624 112.434 87.5964 83.0407 98.2946C53.6476 108.993 26.0625 115.908 5.23717 118.452C-5.18364 119.725 -13.8558 119.895 -20.1963 118.926C-23.367 118.441 -25.902 117.678 -27.7691 116.663C-29.6288 115.652 -30.7706 114.423 -31.2841 113.012C-31.7976 111.602 -31.7126 109.927 -30.9378 107.957C-30.16 105.979 -28.7083 103.765 -26.5912 101.356C-22.3575 96.5371 -15.6044 91.0937 -6.80347 85.3703C10.7846 73.9326 36.3611 61.4987 65.7542 50.8005C95.1473 40.1023 122.732 33.1869 143.558 30.6433C153.979 29.3705 162.651 29.1997 168.991 30.1695C172.162 30.6546 174.697 31.4173 176.564 32.4323C178.424 33.4433 179.565 34.6718 180.079 36.0826Z" stroke="#00FFC2" stroke-width="2"/>
<path opacity="0.896552" d="M183.029 44.5338C183.418 45.984 183.187 47.6452 182.243 49.54C181.296 51.4424 179.657 53.5213 177.338 55.7372C172.7 60.1684 165.499 65.0026 156.232 69.9371C137.714 79.7984 111.151 89.9559 80.9378 98.0516C50.7242 106.147 22.6413 110.632 1.67356 111.351C-8.81852 111.711 -17.4726 111.125 -23.7044 109.606C-26.8208 108.847 -29.2797 107.866 -31.0512 106.692C-32.8157 105.523 -33.846 104.2 -34.2346 102.749C-34.6232 101.299 -34.3926 99.6381 -33.4491 97.7432C-32.5018 95.8409 -30.8627 93.762 -28.5436 91.546C-23.9061 87.1148 -16.7043 82.2806 -7.43802 77.3461C11.08 67.4848 37.6429 57.3273 67.8565 49.2316C98.0702 41.1359 126.153 36.6511 147.121 35.9322C157.613 35.5725 166.267 36.1581 172.499 37.6769C175.615 38.4364 178.074 39.4172 179.846 40.5911C181.61 41.7603 182.64 43.0836 183.029 44.5338Z" stroke="#00FFC2" stroke-width="2"/>
<path opacity="0.931035" d="M185.153 53.2064C185.414 54.685 185.039 56.3197 183.934 58.1251C182.825 59.9377 181.011 61.8658 178.507 63.8712C173.501 67.8814 165.906 72.0694 156.244 76.1776C136.937 84.3874 109.59 92.1911 78.786 97.6227C47.9818 103.054 19.6149 105.075 -1.3357 103.963C-11.8192 103.407 -20.3893 102.069 -26.465 100.013C-29.5034 98.9851 -31.8674 97.7937 -33.5299 96.4699C-35.1858 95.1513 -36.0969 93.7433 -36.3576 92.2647C-36.6183 90.7862 -36.2437 89.1514 -35.1387 87.346C-34.0293 85.5335 -32.2152 83.6054 -29.7118 81.6C-24.7057 77.5898 -17.11 73.4017 -7.4489 69.2936C11.8581 61.0837 39.2052 53.28 70.0095 47.8484C100.814 42.4168 129.181 40.3966 150.131 41.5079C160.615 42.064 169.185 43.4016 175.261 45.4578C178.299 46.486 180.663 47.6774 182.325 49.0012C183.981 50.3198 184.892 51.7279 185.153 53.2064Z" stroke="#00FFC2" stroke-width="2"/>
<path opacity="0.965517" d="M186.434 62.0282C186.565 63.5238 186.049 65.1197 184.791 66.8219C183.528 68.5309 181.553 70.2936 178.884 72.0732C173.547 75.6317 165.616 79.1419 155.633 82.3924C135.684 88.8882 107.761 94.2788 76.6005 97.005C45.4401 99.7312 17.0051 99.2713 -3.76896 96.3383C-14.1641 94.8706 -22.585 92.7911 -28.4584 90.2133C-31.3956 88.9241 -33.6468 87.5312 -35.1876 86.0676C-36.7222 84.6097 -37.5071 83.1276 -37.638 81.6319C-37.7688 80.1363 -37.2532 78.5404 -35.995 76.8382C-34.7318 75.1292 -32.7567 73.3666 -30.088 71.587C-24.7515 68.0284 -16.8196 64.5182 -6.83723 61.2677C13.1119 54.7719 41.035 49.3813 72.1955 46.6551C103.356 43.929 131.791 44.3888 152.565 47.3219C162.96 48.7895 171.381 50.869 177.254 53.4469C180.192 54.736 182.443 56.1289 183.984 57.5926C185.518 59.0504 186.303 60.5325 186.434 62.0282Z" stroke="#00FFC2" stroke-width="2"/>
<path d="M186.861 70.9239C186.861 72.4253 186.209 73.9701 184.807 75.5562C183.4 77.1486 181.278 78.7324 178.465 80.2726C172.838 83.3526 164.631 86.1581 154.403 88.5261C133.964 93.2586 105.677 96.195 74.3975 96.195C43.118 96.195 14.8313 93.2586 -5.60803 88.5261C-15.8357 86.1581 -24.0433 83.3526 -29.6697 80.2726C-32.4833 78.7324 -34.6046 77.1486 -36.0119 75.5562C-37.4137 73.9701 -38.0664 72.4253 -38.0664 70.9239C-38.0664 69.4225 -37.4137 67.8777 -36.0119 66.2916C-34.6046 64.6992 -32.4833 63.1154 -29.6697 61.5752C-24.0433 58.4952 -15.8357 55.6898 -5.60803 53.3217C14.8313 48.5892 43.118 45.6528 74.3975 45.6528C105.677 45.6528 133.964 48.5892 154.403 53.3217C164.631 55.6898 172.838 58.4952 178.465 61.5752C181.278 63.1154 183.4 64.6992 184.807 66.2916C186.209 67.8777 186.861 69.4225 186.861 70.9239Z" stroke="#00FFC2" stroke-width="2"/>
<line x1="109" y1="446" x2="210" y2="446" stroke="#00FFC2" stroke-width="4" stroke-linecap="round"/>
<g filter="url(#filter0_f_234_133)">
<line x1="102" y1="428" x2="207" y2="428" stroke="#00FFC2" stroke-width="40"/>
</g>
</g>
<rect x="0.833984" y="0.5" width="316.333" height="447" rx="15.5" stroke="#0E211C"/>
<defs>
<filter id="filter0_f_234_133" x="-48" y="258" width="405" height="340" filterUnits="userSpaceOnUse" color-interpolation-filters="sRGB">
<feFlood flood-opacity="0" result="BackgroundImageFix"/>
<feBlend mode="normal" in="SourceGraphic" in2="BackgroundImageFix" result="shape"/>
<feGaussianBlur stdDeviation="75" result="effect1_foregroundBlur_234_133"/>
</filter>
<linearGradient id="paint0_linear_234_133" x1="159.001" y1="-10.5" x2="159.001" y2="448" gradientUnits="userSpaceOnUse">
<stop stop-color="#224E44"/>
<stop offset="1" stop-color="#16141F" stop-opacity="0"/>
</linearGradient>
<clipPath id="clip0_234_133">
<rect x="0.333984" width="317.333" height="448" rx="16" fill="white"/>
</clipPath>
</defs>
</svg>
