<svg width="1440" height="288" viewBox="0 0 1440 288" fill="none" xmlns="http://www.w3.org/2000/svg">
<g clip-path="url(#clip0_224_102)">
<rect width="1440" height="288" fill="#00FFC2" fill-opacity="0.3"/>
<mask id="mask0_224_102" style="mask-type:alpha" maskUnits="userSpaceOnUse" x="0" y="-123" width="1440" height="572">
<rect y="-122.895" width="1440" height="571.791" fill="#C4C4C4"/>
</mask>
<g mask="url(#mask0_224_102)">
<path d="M1879.06 -261.544C1649.4 -226.803 1289.34 -156.498 1472.52 65.4398C1705.63 347.871 2275.26 273.882 2022.27 491.871" stroke="white" stroke-opacity="0.1" stroke-width="3"/>
<path d="M1805.01 -226.117C1575.36 -191.377 1215.3 -121.071 1398.47 100.866C1631.58 383.297 2201.21 309.308 1948.22 527.297" stroke="white" stroke-opacity="0.1" stroke-width="3"/>
<path d="M1727.67 -198.636C1498.01 -163.896 1137.95 -93.59 1321.12 128.347C1554.23 410.778 2123.86 336.789 1870.87 554.778" stroke="white" stroke-opacity="0.1" stroke-width="3"/>
<path d="M1647.71 -180.069C1418.05 -145.329 1057.99 -75.0228 1241.17 146.915C1474.27 429.346 2043.91 355.357 1790.91 573.345" stroke="white" stroke-opacity="0.1" stroke-width="3"/>
<path d="M1566.18 -170.503C1336.52 -135.763 976.464 -65.4571 1159.64 156.48C1392.75 438.911 1962.38 364.922 1709.39 582.911" stroke="white" stroke-opacity="0.1" stroke-width="3"/>
<path d="M1484.11 -168.989C1254.45 -134.248 894.393 -63.9426 1077.57 157.995C1310.67 440.426 1880.31 366.437 1627.32 584.426" stroke="white" stroke-opacity="0.1" stroke-width="3"/>
<path d="M1402.17 -173.853C1172.51 -139.112 812.452 -68.8065 995.629 153.131C1228.73 435.562 1798.37 361.573 1545.37 579.562" stroke="white" stroke-opacity="0.1" stroke-width="3"/>
<path d="M1320.62 -183.21C1090.96 -148.47 730.902 -78.1644 914.078 143.773C1147.18 426.204 1716.82 352.215 1463.82 570.204" stroke="white" stroke-opacity="0.1" stroke-width="3"/>
<path d="M1239.43 -195.333C1009.78 -160.592 649.717 -90.2864 832.893 131.651C1066 414.082 1635.63 340.093 1382.64 558.082" stroke="white" stroke-opacity="0.1" stroke-width="3"/>
<path d="M1158.46 -208.792C928.803 -174.051 568.742 -103.746 751.919 118.192C985.024 400.623 1554.66 326.634 1301.66 544.623" stroke="white" stroke-opacity="0.1" stroke-width="3"/>
<path d="M1077.52 -222.477C847.866 -187.736 487.806 -117.431 670.982 104.507C904.087 386.938 1473.72 312.949 1220.73 530.938" stroke="white" stroke-opacity="0.1" stroke-width="3"/>
<path d="M996.486 -235.55C766.829 -200.81 406.768 -130.504 589.945 91.4332C823.05 373.864 1392.69 299.875 1139.69 517.864" stroke="white" stroke-opacity="0.1" stroke-width="3"/>
<path d="M915.261 -247.398C685.603 -212.658 325.543 -142.352 508.719 79.5852C741.824 362.016 1311.46 288.027 1058.47 506.016" stroke="white" stroke-opacity="0.1" stroke-width="3"/>
<path d="M833.81 -257.584C604.152 -222.844 244.092 -152.538 427.268 69.3993C660.373 351.83 1230.01 277.841 977.014 495.83" stroke="white" stroke-opacity="0.1" stroke-width="3"/>
<path d="M752.138 -265.811C522.48 -231.071 162.42 -160.765 345.596 61.1725C578.701 343.603 1148.34 269.614 895.342 487.603" stroke="white" stroke-opacity="0.1" stroke-width="3"/>
<path d="M669.773 -271.968C440.115 -237.227 80.0549 -166.922 263.231 55.0156C496.336 337.447 1065.97 263.458 812.977 481.447" stroke="white" stroke-opacity="0.1" stroke-width="3"/>
<path d="M587.824 -276.707C358.167 -241.967 -1.89351 -171.661 181.283 50.2764C414.388 332.707 984.023 258.718 731.029 476.707" stroke="white" stroke-opacity="0.1" stroke-width="3"/>
<path d="M505.816 -280.262C276.159 -245.522 -83.9017 -175.216 99.2748 46.7215C332.38 329.152 902.015 255.163 649.021 473.152" stroke="white" stroke-opacity="0.1" stroke-width="3"/>
<path d="M423.761 -282.47C194.103 -247.73 -165.957 -177.424 17.2192 44.513C250.324 326.944 819.96 252.955 566.965 470.944" stroke="white" stroke-opacity="0.1" stroke-width="3"/>
<path d="M341.678 -283.129C112.021 -248.389 -248.04 -178.083 -64.8635 43.8541C168.242 326.285 737.877 252.296 484.882 470.285" stroke="white" stroke-opacity="0.1" stroke-width="3"/>
<path d="M259.601 -281.978C29.9433 -247.238 -330.117 -176.932 -146.941 45.0055C86.1642 327.436 655.8 253.447 402.805 471.436" stroke="white" stroke-opacity="0.1" stroke-width="3"/>
<path d="M177.582 -278.674C-52.0755 -243.934 -412.136 -173.628 -228.96 48.3092C4.14538 330.74 573.781 256.751 320.786 474.74" stroke="white" stroke-opacity="0.1" stroke-width="3"/>
<path d="M95.7098 -272.756C-133.948 -238.015 -494.008 -167.71 -310.832 54.2278C-77.7267 336.659 491.909 262.67 238.914 480.659" stroke="white" stroke-opacity="0.1" stroke-width="3"/>
<path d="M14.1386 -263.574C-215.519 -228.834 -575.579 -158.528 -392.403 63.4093C-159.298 345.84 410.337 271.851 157.343 489.84" stroke="white" stroke-opacity="0.1" stroke-width="3"/>
<path d="M-66.8528 -250.191C-296.51 -215.451 -656.571 -145.145 -473.394 76.792C-240.289 359.223 329.346 285.234 76.3516 503.223" stroke="white" stroke-opacity="0.1" stroke-width="3"/>
<path d="M-146.706 -231.271C-376.363 -196.531 -736.424 -126.225 -553.247 95.7122C-320.142 378.143 249.493 304.154 -3.50114 522.143" stroke="white" stroke-opacity="0.1" stroke-width="3"/>
</g>
</g>
<defs>
<clipPath id="clip0_224_102">
<rect width="1440" height="288" fill="white"/>
</clipPath>
</defs>
</svg>
