<svg width="39" height="34" viewBox="0 0 39 34" fill="none" xmlns="http://www.w3.org/2000/svg">
<g clip-path="url(#clip0_143_641)">
<path d="M29.4531 10.3523C28.7422 9.94632 27.8281 9.94632 27.0156 10.3523L21.3281 13.7015L17.4687 15.8329L11.8828 19.1821C11.1719 19.5881 10.2578 19.5881 9.44531 19.1821L5.07812 16.5433C4.36719 16.1374 3.85937 15.3254 3.85937 14.412V9.33737C3.85937 8.52543 4.26562 7.71349 5.07812 7.20602L9.44531 4.66871C10.1562 4.26274 11.0703 4.26274 11.8828 4.66871L16.25 7.30752C16.9609 7.71349 17.4687 8.52543 17.4687 9.43886V12.7881L21.3281 10.5553V7.10453C21.3281 6.29259 20.9219 5.48065 20.1094 4.97319L11.9844 0.203037C11.2734 -0.202933 10.3594 -0.202933 9.54687 0.203037L1.21875 5.07468C0.40625 5.48065 0 6.29259 0 7.10453V16.6448C0 17.4568 0.40625 18.2687 1.21875 18.7762L9.44531 23.5463C10.1562 23.9523 11.0703 23.9523 11.8828 23.5463L17.4687 20.2986L21.3281 18.0657L26.9141 14.818C27.625 14.412 28.5391 14.412 29.3516 14.818L33.7187 17.3553C34.4297 17.7612 34.9375 18.5732 34.9375 19.4866V24.5613C34.9375 25.3732 34.5312 26.1851 33.7187 26.6926L29.4531 29.2299C28.7422 29.6359 27.8281 29.6359 27.0156 29.2299L22.6484 26.6926C21.9375 26.2866 21.4297 25.4747 21.4297 24.5613V21.3135L17.5703 23.5463V26.8956C17.5703 27.7075 17.9766 28.5195 18.7891 29.0269L27.0156 33.7971C27.7266 34.203 28.6406 34.203 29.4531 33.7971L37.6797 29.0269C38.3906 28.621 38.8984 27.809 38.8984 26.8956V17.2538C38.8984 16.4418 38.4922 15.6299 37.6797 15.1224L29.4531 10.3523Z" fill="#8247E5"/>
</g>
<defs>
<clipPath id="clip0_143_641">
<rect width="39" height="34" fill="white"/>
</clipPath>
</defs>
</svg>
