<svg width="16" height="14" viewBox="0 0 16 14" fill="none" xmlns="http://www.w3.org/2000/svg">
<path d="M6.125 4.275V9.725C6.125 10.0375 6.4675 10.2288 6.73375 10.0662L10.8075 7.57625C10.9063 7.51599 10.9879 7.43133 11.0446 7.33042C11.1012 7.22951 11.131 7.11573 11.131 7C11.131 6.88427 11.1012 6.77049 11.0446 6.66958C10.9879 6.56867 10.9063 6.48401 10.8075 6.42375L6.7325 3.935C6.67189 3.89822 6.6026 3.87822 6.53172 3.87703C6.46083 3.87584 6.39091 3.89351 6.3291 3.92823C6.26729 3.96294 6.21582 4.01347 6.17996 4.07462C6.14409 4.13577 6.12513 4.20411 6.125 4.275ZM3.625 0.75C2.7962 0.75 2.00134 1.07924 1.41529 1.66529C0.82924 2.25134 0.5 3.0462 0.5 3.875V10.125C0.5 10.9538 0.82924 11.7487 1.41529 12.3347C2.00134 12.9208 2.7962 13.25 3.625 13.25H12.375C13.2038 13.25 13.9987 12.9208 14.5847 12.3347C15.1708 11.7487 15.5 10.9538 15.5 10.125V3.875C15.5 3.0462 15.1708 2.25134 14.5847 1.66529C13.9987 1.07924 13.2038 0.75 12.375 0.75H3.625ZM1.75 3.875C1.75 3.37772 1.94754 2.90081 2.29917 2.54917C2.65081 2.19754 3.12772 2 3.625 2H12.375C12.8723 2 13.3492 2.19754 13.7008 2.54917C14.0525 2.90081 14.25 3.37772 14.25 3.875V10.125C14.25 10.6223 14.0525 11.0992 13.7008 11.4508C13.3492 11.8025 12.8723 12 12.375 12H3.625C3.12772 12 2.65081 11.8025 2.29917 11.4508C1.94754 11.0992 1.75 10.6223 1.75 10.125V3.875Z" fill="#00FFC2"/>
</svg>
