<svg width="492" height="492" viewBox="0 0 492 492" fill="none" xmlns="http://www.w3.org/2000/svg">
<g clip-path="url(#clip0_21_15089)">
<rect width="492" height="492" fill="url(#paint0_linear_21_15089)"/>
<line x1="-310" y1="44.0291" x2="801.986" y2="44.0291" stroke="#FAFAFA" stroke-opacity="0.05"/>
<line x1="-310" y1="88.697" x2="801.986" y2="88.697" stroke="#FAFAFA" stroke-opacity="0.05"/>
<line x1="-310" y1="133.365" x2="801.986" y2="133.365" stroke="#FAFAFA" stroke-opacity="0.05"/>
<line x1="-310" y1="178.033" x2="801.986" y2="178.033" stroke="#FAFAFA" stroke-opacity="0.05"/>
<line x1="-310" y1="222.701" x2="801.986" y2="222.701" stroke="#FAFAFA" stroke-opacity="0.05"/>
<line x1="-310" y1="267.369" x2="801.986" y2="267.369" stroke="#FAFAFA" stroke-opacity="0.05"/>
<line x1="-310" y1="312.037" x2="801.986" y2="312.037" stroke="#FAFAFA" stroke-opacity="0.05"/>
<line x1="-310" y1="356.704" x2="801.986" y2="356.704" stroke="#FAFAFA" stroke-opacity="0.05"/>
<line x1="-310" y1="401.372" x2="801.986" y2="401.372" stroke="#FAFAFA" stroke-opacity="0.05"/>
<line x1="-310" y1="446.04" x2="801.986" y2="446.04" stroke="#FAFAFA" stroke-opacity="0.05"/>
<line x1="0.450592" y1="494" x2="0.450561" y2="-2" stroke="#FAFAFA" stroke-opacity="0.05"/>
<line x1="41.0094" y1="494" x2="41.0093" y2="-2" stroke="#FAFAFA" stroke-opacity="0.05"/>
<line x1="81.5681" y1="494" x2="81.5681" y2="-2" stroke="#FAFAFA" stroke-opacity="0.05"/>
<line x1="122.127" y1="494" x2="122.127" y2="-2" stroke="#FAFAFA" stroke-opacity="0.05"/>
<line x1="162.686" y1="494" x2="162.686" y2="-2" stroke="#FAFAFA" stroke-opacity="0.05"/>
<line x1="203.244" y1="494" x2="203.244" y2="-2" stroke="#FAFAFA" stroke-opacity="0.05"/>
<line x1="243.803" y1="494" x2="243.803" y2="-2" stroke="#FAFAFA" stroke-opacity="0.05"/>
<line x1="284.362" y1="494" x2="284.362" y2="-2" stroke="#FAFAFA" stroke-opacity="0.05"/>
<line x1="324.921" y1="494" x2="324.921" y2="-2" stroke="#FAFAFA" stroke-opacity="0.05"/>
<line x1="365.48" y1="494" x2="365.48" y2="-2" stroke="#FAFAFA" stroke-opacity="0.05"/>
<line x1="406.038" y1="494" x2="406.038" y2="-2" stroke="#FAFAFA" stroke-opacity="0.05"/>
<line x1="446.597" y1="494" x2="446.597" y2="-2" stroke="#FAFAFA" stroke-opacity="0.05"/>
<line x1="487.156" y1="494" x2="487.156" y2="-2" stroke="#FAFAFA" stroke-opacity="0.05"/>
<g filter="url(#filter0_f_21_15089)">
<rect x="-40" y="-29" width="354" height="354" rx="4" fill="#56776F" fill-opacity="0.38"/>
</g>
<g filter="url(#filter1_f_21_15089)">
<rect x="244" y="223" width="354" height="354" rx="4" fill="#56776F" fill-opacity="0.38"/>
</g>
<g clip-path="url(#clip1_21_15089)">
<path d="M236.036 226.732H269.893C272.225 226.732 274.125 223.596 274.125 221.264V217.032C274.125 216.198 274.375 215.999 274.836 215.305L278.912 209.804H278.357C276.021 209.804 274.125 207.908 274.125 205.571C274.125 203.24 272.225 201.339 269.893 201.339H236.036C233.704 201.339 231.804 202 231.804 204.336V221.264C231.804 223.596 233.704 226.732 236.036 226.732ZM240.268 209.804H265.661V218.268H240.268V209.804Z" fill="#00FFC2"/>
<path d="M176.786 195.871C186.135 195.871 193.714 188.292 193.714 178.943C193.714 169.593 186.135 162.014 176.786 162.014C167.436 162.014 159.857 169.593 159.857 178.943C159.857 188.292 167.436 195.871 176.786 195.871Z" fill="#00FFC2"/>
<path d="M210.643 137.857C212.979 137.857 214.875 138.513 214.875 140.854V145.086L219.954 138.932C220.753 137.866 222.006 137.857 223.339 137.857H257.196C259.528 137.857 261.429 134.721 261.429 132.389V115.461C261.429 113.125 259.528 112.464 257.196 112.464H206.411C204.079 112.464 202.179 113.125 202.179 115.456V132.385C202.179 134.721 204.079 137.857 206.411 137.857H210.643ZM210.643 120.929H252.964V129.393H210.643V120.929Z" fill="#00FFC2"/>
<path d="M312.214 195.871C321.564 195.871 329.143 188.292 329.143 178.943C329.143 169.593 321.564 162.014 312.214 162.014C302.865 162.014 295.286 169.593 295.286 178.943C295.286 188.292 302.865 195.871 312.214 195.871Z" fill="#00FFC2"/>
<path d="M320.679 222.5H303.75V233.961V238.193V246.657C303.75 248.993 301.854 252.125 299.518 252.125H265.661V260.589H278.357H286.821H312.214V235.196H320.679V263.586C320.679 265.922 318.783 269.054 316.446 269.054H286.821C284.49 269.054 282.589 269.714 282.589 272.05V332.536H291.054V284.746C291.054 282.406 292.95 281.75 295.286 281.75H333.375V233.961C333.375 226.956 327.679 222.5 320.679 222.5Z" fill="#00FFC2"/>
<path d="M185.25 246.657V238.193V233.961V222.5H168.321C161.321 222.5 155.625 226.956 155.625 233.961V281.75H193.714C196.05 281.75 197.946 282.406 197.946 284.746V332.536H206.411V272.05C206.411 269.714 204.51 269.054 202.179 269.054H172.554C170.217 269.054 168.321 265.922 168.321 263.586V235.196H176.786V260.589H202.179H210.643H223.339V252.125H189.482C187.146 252.125 185.25 248.993 185.25 246.657Z" fill="#00FFC2"/>
<path d="M176.786 204.336C190.79 204.336 202.179 192.947 202.179 178.943C202.179 164.939 190.79 153.55 176.786 153.55C162.782 153.55 151.393 164.939 151.393 178.943C151.393 192.947 162.782 204.336 176.786 204.336ZM176.786 162.014C186.122 162.014 193.714 169.607 193.714 178.943C193.714 188.279 186.122 195.871 176.786 195.871C167.45 195.871 159.857 188.279 159.857 178.943C159.857 169.607 167.45 162.014 176.786 162.014Z" fill="black"/>
<path d="M312.214 204.336C326.218 204.336 337.607 192.947 337.607 178.943C337.607 164.939 326.218 153.55 312.214 153.55C298.21 153.55 286.821 164.939 286.821 178.943C286.821 192.947 298.21 204.336 312.214 204.336ZM312.214 162.014C321.55 162.014 329.143 169.607 329.143 178.943C329.143 188.279 321.55 195.871 312.214 195.871C302.878 195.871 295.286 188.279 295.286 178.943C295.286 169.607 302.878 162.014 312.214 162.014Z" fill="black"/>
<path d="M354.536 214.036V267.818C354.536 274.818 348.839 280.514 341.839 280.514V233.961C341.839 222.293 332.347 214.036 320.679 214.036H299.518C297.182 214.036 295.286 214.692 295.286 217.032V233.961V238.193V243.661H261.429C259.092 243.661 257.196 244.317 257.196 246.657V260.589H231.804V246.657C231.804 244.317 229.908 243.661 227.571 243.661H193.714V238.193V233.961V217.032C193.714 214.692 191.818 214.036 189.482 214.036H168.321C156.653 214.036 147.161 222.293 147.161 233.961V280.514C140.161 280.514 134.464 274.818 134.464 267.818V214.036H126V267.818C126 276.473 131.235 283.908 138.696 287.184V341H147.161V290.214H151.393H155.625H189.482V335.532C189.482 337.868 191.378 341 193.714 341H206.411H210.643H214.875V335.532V272.05V269.054H227.571H261.429H274.125V272.05V335.532V341H278.357H282.589H295.286C297.622 341 299.518 337.868 299.518 335.532V290.214H333.375H337.607H341.839V341H350.304V287.184C357.765 283.908 363 276.473 363 267.818V214.036H354.536ZM210.643 260.589H202.179H176.786V235.196H168.321V263.586C168.321 265.922 170.217 269.054 172.554 269.054H202.179C204.51 269.054 206.411 269.714 206.411 272.05V332.536H197.946V284.746C197.946 282.406 196.05 281.75 193.714 281.75H155.625V233.961C155.625 226.956 161.321 222.5 168.321 222.5H185.25V233.961V238.193V246.657C185.25 248.993 187.146 252.125 189.482 252.125H223.339V260.589H210.643ZM295.286 281.75C292.95 281.75 291.054 282.406 291.054 284.746V332.536H282.589V272.05C282.589 269.714 284.49 269.054 286.821 269.054H316.446C318.783 269.054 320.679 265.922 320.679 263.586V235.196H312.214V260.589H286.821H278.357H265.661V252.125H299.518C301.854 252.125 303.75 248.993 303.75 246.657V238.193V233.961V222.5H320.679C327.679 222.5 333.375 226.956 333.375 233.961V281.75H295.286Z" fill="black"/>
<path d="M206.411 145.086V157.782C206.411 159.606 207.575 161.219 209.306 161.798C209.746 161.946 210.198 162.014 210.643 162.014C211.951 162.014 213.212 162.027 214.029 160.939L225.455 146.321H257.196C264.196 146.321 269.893 139.389 269.893 132.389V115.461C269.893 108.456 264.196 104 257.196 104H206.411C199.411 104 193.714 108.456 193.714 115.456V132.385C193.714 139.389 199.411 145.086 206.411 145.086ZM202.179 115.456C202.179 113.125 204.079 112.464 206.411 112.464H257.196C259.528 112.464 261.429 113.125 261.429 115.456V132.385C261.429 134.721 259.528 137.857 257.196 137.857H223.339C222.006 137.857 220.753 137.866 219.954 138.932L214.875 145.086V140.854C214.875 138.513 212.979 137.857 210.643 137.857H206.411C204.079 137.857 202.179 134.721 202.179 132.389V115.456Z" fill="black"/>
<path d="M252.964 120.929H210.643V129.393H252.964V120.929Z" fill="black"/>
<path d="M265.661 209.804H240.268V218.268H265.661V209.804Z" fill="black"/>
<path d="M236.036 192.875C229.036 192.875 223.339 197.331 223.339 204.336V221.264C223.339 228.264 229.036 235.196 236.036 235.196H269.893C276.893 235.196 282.589 228.264 282.589 221.264V218.31L290.343 206.68C291.21 205.381 291.291 204.331 290.554 202.956C289.818 201.581 288.383 201.339 286.821 201.339H281.866C280.118 192.875 275.412 192.875 269.893 192.875H236.036ZM274.125 205.571C274.125 207.908 276.021 209.804 278.357 209.804H278.912L274.836 215.301C274.375 215.995 274.125 216.194 274.125 217.032V221.264C274.125 223.596 272.225 226.732 269.893 226.732H236.036C233.704 226.732 231.804 223.596 231.804 221.264V204.336C231.804 202 233.704 201.339 236.036 201.339H269.893C272.225 201.339 274.125 203.24 274.125 205.571Z" fill="black"/>
<path d="M231.804 170.479H223.339V178.943H231.804V170.479Z" fill="black"/>
<path d="M248.732 170.479H240.268V178.943H248.732V170.479Z" fill="black"/>
<path d="M265.661 170.479H257.196V178.943H265.661V170.479Z" fill="black"/>
</g>
</g>
<rect x="0.5" y="0.5" width="491" height="491" stroke="#0E211C"/>
<defs>
<filter id="filter0_f_21_15089" x="-243" y="-232" width="760" height="760" filterUnits="userSpaceOnUse" color-interpolation-filters="sRGB">
<feFlood flood-opacity="0" result="BackgroundImageFix"/>
<feBlend mode="normal" in="SourceGraphic" in2="BackgroundImageFix" result="shape"/>
<feGaussianBlur stdDeviation="101.5" result="effect1_foregroundBlur_21_15089"/>
</filter>
<filter id="filter1_f_21_15089" x="41" y="20" width="760" height="760" filterUnits="userSpaceOnUse" color-interpolation-filters="sRGB">
<feFlood flood-opacity="0" result="BackgroundImageFix"/>
<feBlend mode="normal" in="SourceGraphic" in2="BackgroundImageFix" result="shape"/>
<feGaussianBlur stdDeviation="101.5" result="effect1_foregroundBlur_21_15089"/>
</filter>
<linearGradient id="paint0_linear_21_15089" x1="246" y1="-11.5313" x2="246" y2="492" gradientUnits="userSpaceOnUse">
<stop stop-color="#224E44"/>
<stop offset="1" stop-color="#16141F" stop-opacity="0"/>
</linearGradient>
<clipPath id="clip0_21_15089">
<rect width="492" height="492" fill="white"/>
</clipPath>
<clipPath id="clip1_21_15089">
<rect width="237" height="237" fill="white" transform="translate(126 104)"/>
</clipPath>
</defs>
</svg>
