<svg width="492" height="492" viewBox="0 0 492 492" fill="none" xmlns="http://www.w3.org/2000/svg">
<g clip-path="url(#clip0_21_15083)">
<rect width="492" height="492" fill="url(#paint0_linear_21_15083)"/>
<line x1="-310" y1="44.0291" x2="801.986" y2="44.0291" stroke="#FAFAFA" stroke-opacity="0.05"/>
<line x1="-310" y1="88.697" x2="801.986" y2="88.697" stroke="#FAFAFA" stroke-opacity="0.05"/>
<line x1="-310" y1="133.365" x2="801.986" y2="133.365" stroke="#FAFAFA" stroke-opacity="0.05"/>
<line x1="-310" y1="178.033" x2="801.986" y2="178.033" stroke="#FAFAFA" stroke-opacity="0.05"/>
<line x1="-310" y1="222.701" x2="801.986" y2="222.701" stroke="#FAFAFA" stroke-opacity="0.05"/>
<line x1="-310" y1="267.369" x2="801.986" y2="267.369" stroke="#FAFAFA" stroke-opacity="0.05"/>
<line x1="-310" y1="312.037" x2="801.986" y2="312.037" stroke="#FAFAFA" stroke-opacity="0.05"/>
<line x1="-310" y1="356.704" x2="801.986" y2="356.704" stroke="#FAFAFA" stroke-opacity="0.05"/>
<line x1="-310" y1="401.372" x2="801.986" y2="401.372" stroke="#FAFAFA" stroke-opacity="0.05"/>
<line x1="-310" y1="446.04" x2="801.986" y2="446.04" stroke="#FAFAFA" stroke-opacity="0.05"/>
<line x1="0.450592" y1="494" x2="0.450561" y2="-2" stroke="#FAFAFA" stroke-opacity="0.05"/>
<line x1="41.0094" y1="494" x2="41.0093" y2="-2" stroke="#FAFAFA" stroke-opacity="0.05"/>
<line x1="81.5681" y1="494" x2="81.5681" y2="-2" stroke="#FAFAFA" stroke-opacity="0.05"/>
<line x1="122.127" y1="494" x2="122.127" y2="-2" stroke="#FAFAFA" stroke-opacity="0.05"/>
<line x1="162.686" y1="494" x2="162.686" y2="-2" stroke="#FAFAFA" stroke-opacity="0.05"/>
<line x1="203.244" y1="494" x2="203.244" y2="-2" stroke="#FAFAFA" stroke-opacity="0.05"/>
<line x1="243.803" y1="494" x2="243.803" y2="-2" stroke="#FAFAFA" stroke-opacity="0.05"/>
<line x1="284.362" y1="494" x2="284.362" y2="-2" stroke="#FAFAFA" stroke-opacity="0.05"/>
<line x1="324.921" y1="494" x2="324.921" y2="-2" stroke="#FAFAFA" stroke-opacity="0.05"/>
<line x1="365.48" y1="494" x2="365.48" y2="-2" stroke="#FAFAFA" stroke-opacity="0.05"/>
<line x1="406.038" y1="494" x2="406.038" y2="-2" stroke="#FAFAFA" stroke-opacity="0.05"/>
<line x1="446.597" y1="494" x2="446.597" y2="-2" stroke="#FAFAFA" stroke-opacity="0.05"/>
<line x1="487.156" y1="494" x2="487.156" y2="-2" stroke="#FAFAFA" stroke-opacity="0.05"/>
<g filter="url(#filter0_f_21_15083)">
<rect x="69" y="69" width="354" height="354" rx="4" fill="#56776F" fill-opacity="0.38"/>
</g>
<g filter="url(#filter1_d_21_15083)">
<path d="M229.458 331.5V357.667H174.292H173.292V358.667V386.833V387.833H174.292H314.708H315.708V386.833V358.667V357.667H314.708H259.542V331.5H370.987C379.091 331.5 385.917 324.69 385.917 316.304V133.432C385.917 125.037 379.25 118.25 370.987 118.25H118.013C109.909 118.25 103.083 125.06 103.083 133.446V316.299C103.064 318.279 103.435 320.244 104.174 322.08C104.914 323.918 106.008 325.591 107.394 327.004C108.781 328.417 110.432 329.542 112.253 330.313C114.074 331.085 116.03 331.488 118.007 331.5H118.013H229.458Z" fill="#07050F" stroke="#56776F" stroke-width="2"/>
<rect x="173.5" y="203.5" width="142" height="52" rx="3.5" fill="#00FFC2"/>
<path d="M197.616 231.156V228.884H199.712C200.117 228.884 200.464 228.804 200.752 228.644C201.051 228.484 201.28 228.26 201.44 227.972C201.6 227.673 201.68 227.332 201.68 226.948C201.68 226.543 201.6 226.196 201.44 225.908C201.28 225.609 201.051 225.385 200.752 225.236C200.464 225.076 200.117 224.996 199.712 224.996H197.616V222.724H199.584C200.576 222.724 201.424 222.889 202.128 223.22C202.843 223.551 203.387 224.02 203.76 224.628C204.144 225.236 204.336 225.967 204.336 226.82V227.076C204.336 227.908 204.144 228.633 203.76 229.252C203.387 229.86 202.843 230.329 202.128 230.66C201.424 230.991 200.576 231.156 199.584 231.156H197.616ZM195.312 234.5V222.724H197.936V234.5H195.312ZM208.8 234.772C207.787 234.772 207.008 234.447 206.464 233.796C205.92 233.135 205.648 232.143 205.648 230.82V225.732H208.208V230.948C208.208 231.417 208.341 231.791 208.608 232.068C208.875 232.345 209.232 232.484 209.68 232.484C210.139 232.484 210.512 232.34 210.8 232.052C211.088 231.764 211.232 231.375 211.232 230.884V225.732H213.792V234.5H211.76V230.804H211.936C211.936 231.689 211.819 232.431 211.584 233.028C211.36 233.615 211.024 234.052 210.576 234.34C210.128 234.628 209.573 234.772 208.912 234.772H208.8ZM221.544 234.788C220.83 234.788 220.2 234.639 219.656 234.34C219.112 234.031 218.686 233.588 218.376 233.012C218.067 232.436 217.902 231.732 217.88 230.9H218.184V234.5H216.152V222.82H218.712V228.756L218.104 229.524C218.136 228.639 218.302 227.897 218.6 227.3C218.91 226.692 219.331 226.239 219.864 225.94C220.398 225.631 221.006 225.476 221.688 225.476C222.286 225.476 222.824 225.588 223.304 225.812C223.795 226.025 224.211 226.335 224.552 226.74C224.894 227.135 225.155 227.604 225.336 228.148C225.528 228.692 225.624 229.284 225.624 229.924V230.276C225.624 230.916 225.528 231.508 225.336 232.052C225.155 232.596 224.883 233.076 224.52 233.492C224.168 233.897 223.742 234.217 223.24 234.452C222.739 234.676 222.174 234.788 221.544 234.788ZM220.872 232.644C221.31 232.644 221.688 232.537 222.008 232.324C222.339 232.111 222.595 231.812 222.776 231.428C222.958 231.033 223.048 230.591 223.048 230.1C223.048 229.599 222.958 229.161 222.776 228.788C222.595 228.415 222.339 228.127 222.008 227.924C221.688 227.711 221.31 227.604 220.872 227.604C220.488 227.604 220.126 227.695 219.784 227.876C219.443 228.057 219.166 228.319 218.952 228.66C218.75 228.991 218.648 229.396 218.648 229.876V230.468C218.648 230.927 218.755 231.321 218.968 231.652C219.192 231.972 219.475 232.217 219.816 232.388C220.158 232.559 220.51 232.644 220.872 232.644ZM227.514 234.5V222.82H230.09V234.5H227.514ZM226.474 224.708V222.82H230.09V224.708H226.474ZM232.865 234.5V225.732H235.425V234.5H232.865ZM231.697 227.62V225.732H235.425V227.62H231.697ZM233.857 224.868C233.377 224.868 233.02 224.745 232.785 224.5C232.561 224.244 232.449 223.924 232.449 223.54C232.449 223.145 232.561 222.825 232.785 222.58C233.02 222.324 233.377 222.196 233.857 222.196C234.337 222.196 234.689 222.324 234.913 222.58C235.148 222.825 235.265 223.145 235.265 223.54C235.265 223.924 235.148 224.244 234.913 224.5C234.689 224.745 234.337 224.868 233.857 224.868ZM241.121 234.772C239.873 234.772 238.897 234.516 238.193 234.004C237.489 233.492 237.116 232.772 237.073 231.844H239.345C239.388 232.121 239.553 232.372 239.841 232.596C240.14 232.809 240.582 232.916 241.169 232.916C241.617 232.916 241.985 232.841 242.273 232.692C242.572 232.532 242.721 232.308 242.721 232.02C242.721 231.764 242.609 231.561 242.385 231.412C242.161 231.252 241.761 231.14 241.185 231.076L240.497 231.012C239.441 230.905 238.646 230.612 238.113 230.132C237.59 229.652 237.329 229.039 237.329 228.292C237.329 227.673 237.484 227.156 237.793 226.74C238.102 226.324 238.529 226.009 239.073 225.796C239.628 225.583 240.257 225.476 240.961 225.476C242.092 225.476 243.004 225.727 243.697 226.228C244.39 226.719 244.753 227.433 244.785 228.372H242.513C242.47 228.084 242.321 227.844 242.065 227.652C241.809 227.449 241.43 227.348 240.929 227.348C240.534 227.348 240.22 227.423 239.985 227.572C239.75 227.721 239.633 227.924 239.633 228.18C239.633 228.425 239.734 228.612 239.937 228.74C240.14 228.868 240.47 228.959 240.929 229.012L241.617 229.076C242.694 229.193 243.532 229.492 244.129 229.972C244.726 230.452 245.025 231.097 245.025 231.908C245.025 232.495 244.865 233.007 244.545 233.444C244.225 233.871 243.772 234.201 243.185 234.436C242.598 234.66 241.91 234.772 241.121 234.772ZM246.684 234.5V222.82H249.244V229.556H248.86C248.86 228.671 248.972 227.924 249.196 227.316C249.42 226.708 249.75 226.249 250.188 225.94C250.625 225.62 251.174 225.46 251.836 225.46H251.948C252.918 225.46 253.66 225.807 254.172 226.5C254.684 227.183 254.94 228.185 254.94 229.508V234.5H252.38V229.348C252.38 228.868 252.236 228.484 251.948 228.196C251.67 227.897 251.302 227.748 250.844 227.748C250.364 227.748 249.974 227.903 249.676 228.212C249.388 228.521 249.244 228.932 249.244 229.444V234.5H246.684ZM259.521 234.5L263.377 222.82H267.617L271.617 234.5H268.897L265.665 224.628L266.497 224.964H264.433L265.297 224.628L262.145 234.5H259.521ZM262.449 231.604L263.249 229.428H267.825L268.641 231.604H262.449ZM272.996 237.7V225.732H275.028V229.524L274.756 229.508C274.799 228.633 274.98 227.897 275.3 227.3C275.62 226.692 276.052 226.239 276.596 225.94C277.14 225.631 277.753 225.476 278.436 225.476C279.044 225.476 279.593 225.588 280.084 225.812C280.585 226.036 281.012 226.351 281.364 226.756C281.727 227.151 281.999 227.62 282.18 228.164C282.372 228.697 282.468 229.284 282.468 229.924V230.292C282.468 230.921 282.377 231.513 282.196 232.068C282.015 232.612 281.748 233.087 281.396 233.492C281.055 233.897 280.633 234.217 280.132 234.452C279.641 234.676 279.076 234.788 278.436 234.788C277.775 234.788 277.177 234.655 276.644 234.388C276.121 234.111 275.7 233.695 275.38 233.14C275.06 232.575 274.884 231.86 274.852 230.996L275.556 231.956V237.7H272.996ZM277.716 232.644C278.153 232.644 278.532 232.537 278.852 232.324C279.183 232.111 279.439 231.812 279.62 231.428C279.801 231.044 279.892 230.601 279.892 230.1C279.892 229.599 279.801 229.161 279.62 228.788C279.439 228.415 279.188 228.127 278.868 227.924C278.548 227.711 278.164 227.604 277.716 227.604C277.332 227.604 276.969 227.695 276.628 227.876C276.287 228.057 276.009 228.319 275.796 228.66C275.593 228.991 275.492 229.396 275.492 229.876V230.468C275.492 230.927 275.599 231.321 275.812 231.652C276.036 231.972 276.319 232.217 276.66 232.388C277.001 232.559 277.353 232.644 277.716 232.644ZM284.246 237.7V225.732H286.278V229.524L286.006 229.508C286.049 228.633 286.23 227.897 286.55 227.3C286.87 226.692 287.302 226.239 287.846 225.94C288.39 225.631 289.003 225.476 289.686 225.476C290.294 225.476 290.843 225.588 291.334 225.812C291.835 226.036 292.262 226.351 292.614 226.756C292.977 227.151 293.249 227.62 293.43 228.164C293.622 228.697 293.718 229.284 293.718 229.924V230.292C293.718 230.921 293.627 231.513 293.446 232.068C293.265 232.612 292.998 233.087 292.646 233.492C292.305 233.897 291.883 234.217 291.382 234.452C290.891 234.676 290.326 234.788 289.686 234.788C289.025 234.788 288.427 234.655 287.894 234.388C287.371 234.111 286.95 233.695 286.63 233.14C286.31 232.575 286.134 231.86 286.102 230.996L286.806 231.956V237.7H284.246ZM288.966 232.644C289.403 232.644 289.782 232.537 290.102 232.324C290.433 232.111 290.689 231.812 290.87 231.428C291.051 231.044 291.142 230.601 291.142 230.1C291.142 229.599 291.051 229.161 290.87 228.788C290.689 228.415 290.438 228.127 290.118 227.924C289.798 227.711 289.414 227.604 288.966 227.604C288.582 227.604 288.219 227.695 287.878 227.876C287.537 228.057 287.259 228.319 287.046 228.66C286.843 228.991 286.742 229.396 286.742 229.876V230.468C286.742 230.927 286.849 231.321 287.062 231.652C287.286 231.972 287.569 232.217 287.91 232.388C288.251 232.559 288.603 232.644 288.966 232.644Z" fill="#16141F"/>
<rect x="173.5" y="203.5" width="142" height="52" rx="3.5" stroke="black"/>
<g clip-path="url(#clip1_21_15083)">
<path d="M291.496 251.368L292.965 250.398C293.139 250.283 293.352 250.242 293.557 250.284C293.761 250.326 293.941 250.447 294.056 250.622C294.171 250.796 294.212 251.009 294.17 251.213C294.128 251.418 294.007 251.597 293.832 251.712L292.363 252.682C292.277 252.739 292.18 252.779 292.079 252.798C291.977 252.818 291.873 252.817 291.772 252.796C291.67 252.776 291.574 252.735 291.489 252.677C291.403 252.619 291.33 252.545 291.273 252.459C291.216 252.372 291.176 252.276 291.157 252.174C291.137 252.073 291.138 251.968 291.159 251.867C291.179 251.766 291.22 251.67 291.278 251.584C291.336 251.498 291.41 251.425 291.496 251.368ZM278.842 252.65L279.524 253.044C279.705 253.148 279.92 253.176 280.121 253.122C280.323 253.068 280.495 252.936 280.599 252.756C280.704 252.575 280.732 252.36 280.678 252.158C280.624 251.957 280.492 251.785 280.311 251.68L279.629 251.287C279.449 251.182 279.234 251.154 279.032 251.208C278.83 251.262 278.658 251.394 278.554 251.575C278.45 251.756 278.421 251.97 278.475 252.172C278.529 252.374 278.661 252.546 278.842 252.65ZM289.202 250.45C289.383 250.555 289.598 250.583 289.8 250.529C290.001 250.475 290.173 250.343 290.278 250.162L290.671 249.481C290.776 249.3 290.804 249.085 290.75 248.883C290.696 248.681 290.564 248.51 290.383 248.405C290.202 248.301 289.987 248.272 289.786 248.326C289.584 248.381 289.412 248.512 289.308 248.693L288.914 249.375C288.81 249.556 288.782 249.771 288.836 249.972C288.89 250.174 289.022 250.346 289.202 250.45ZM279.072 254.697L277.314 254.592C277.106 254.579 276.901 254.65 276.745 254.789C276.589 254.927 276.494 255.122 276.482 255.331C276.469 255.539 276.54 255.744 276.679 255.9C276.817 256.056 277.012 256.151 277.221 256.163L278.978 256.269C279.081 256.275 279.184 256.261 279.282 256.227C279.38 256.193 279.47 256.141 279.547 256.072C279.624 256.003 279.688 255.92 279.733 255.827C279.778 255.734 279.804 255.633 279.811 255.53C279.817 255.427 279.802 255.323 279.769 255.226C279.735 255.128 279.682 255.038 279.614 254.961C279.545 254.883 279.462 254.82 279.369 254.775C279.276 254.73 279.175 254.703 279.072 254.697ZM289.849 262.726L295.216 263.339C295.532 263.372 295.85 263.31 296.13 263.159C296.409 263.009 296.636 262.777 296.782 262.495C296.928 262.213 296.984 261.893 296.945 261.578C296.906 261.263 296.772 260.967 296.562 260.73L285.492 248.399C285.298 248.183 285.048 248.025 284.77 247.942C284.492 247.86 284.197 247.856 283.917 247.931C283.637 248.006 283.383 248.157 283.183 248.368C282.984 248.578 282.847 248.84 282.787 249.124L279.365 265.337C279.297 265.649 279.327 265.974 279.45 266.269C279.572 266.563 279.783 266.813 280.052 266.984L280.119 267.022C280.383 267.176 280.687 267.249 280.992 267.231C281.297 267.214 281.591 267.107 281.836 266.924L286.177 263.71L288.167 271.136C288.221 271.336 288.313 271.523 288.439 271.687C288.565 271.852 288.722 271.989 288.901 272.093C289.08 272.196 289.278 272.263 289.483 272.29C289.688 272.317 289.896 272.303 290.096 272.25L290.725 272.081C290.925 272.028 291.112 271.935 291.276 271.81C291.44 271.684 291.578 271.527 291.681 271.348C291.785 271.169 291.852 270.971 291.879 270.766C291.906 270.561 291.892 270.352 291.839 270.153L289.849 262.726Z" fill="#FAFAFA"/>
</g>
</g>
</g>
<rect x="0.5" y="0.5" width="491" height="491" stroke="#0E211C"/>
<defs>
<filter id="filter0_f_21_15083" x="-134" y="-134" width="760" height="760" filterUnits="userSpaceOnUse" color-interpolation-filters="sRGB">
<feFlood flood-opacity="0" result="BackgroundImageFix"/>
<feBlend mode="normal" in="SourceGraphic" in2="BackgroundImageFix" result="shape"/>
<feGaussianBlur stdDeviation="101.5" result="effect1_foregroundBlur_21_15083"/>
</filter>
<filter id="filter1_d_21_15083" x="46" y="47" width="397" height="398" filterUnits="userSpaceOnUse" color-interpolation-filters="sRGB">
<feFlood flood-opacity="0" result="BackgroundImageFix"/>
<feColorMatrix in="SourceAlpha" type="matrix" values="0 0 0 0 0 0 0 0 0 0 0 0 0 0 0 0 0 0 127 0" result="hardAlpha"/>
<feOffset/>
<feGaussianBlur stdDeviation="15"/>
<feComposite in2="hardAlpha" operator="out"/>
<feColorMatrix type="matrix" values="0 0 0 0 0 0 0 0 0 0 0 0 0 0 0 0 0 0 0.35 0"/>
<feBlend mode="normal" in2="BackgroundImageFix" result="effect1_dropShadow_21_15083"/>
<feBlend mode="normal" in="SourceGraphic" in2="effect1_dropShadow_21_15083" result="shape"/>
</filter>
<linearGradient id="paint0_linear_21_15083" x1="246" y1="-11.5313" x2="246" y2="492" gradientUnits="userSpaceOnUse">
<stop stop-color="#224E44"/>
<stop offset="1" stop-color="#16141F" stop-opacity="0"/>
</linearGradient>
<clipPath id="clip0_21_15083">
<rect width="492" height="492" fill="white"/>
</clipPath>
<clipPath id="clip1_21_15083">
<rect width="25.1914" height="25.1914" fill="white" transform="translate(282.596 243) rotate(30)"/>
</clipPath>
</defs>
</svg>
